<?xml version="1.0" encoding="UTF-8" standalone="no"?>
<!-- Created with Inkscape (http://www.inkscape.org/) -->

<svg
   xmlns:dc="http://purl.org/dc/elements/1.1/"
   xmlns:cc="http://creativecommons.org/ns#"
   xmlns:rdf="http://www.w3.org/1999/02/22-rdf-syntax-ns#"
   xmlns:svg="http://www.w3.org/2000/svg"
   xmlns="http://www.w3.org/2000/svg"
   xmlns:sodipodi="http://sodipodi.sourceforge.net/DTD/sodipodi-0.dtd"
   xmlns:inkscape="http://www.inkscape.org/namespaces/inkscape"
   width="48px"
   height="48px"
   id="svg3042"
   version="1.1"
   inkscape:version="0.48.2 r9819"
   sodipodi:docname="Новый документ 3">
  <defs
     id="defs3044">
    <filter
       color-interpolation-filters="sRGB"
       inkscape:collect="always"
       id="filter4428"
       x="-0.19200306"
       width="1.3840061"
       y="-0.19199695"
       height="1.3839939">
      <feGaussianBlur
         inkscape:collect="always"
         stdDeviation="7.3095838"
         id="feGaussianBlur4430" />
    </filter>
    <filter
       inkscape:collect="always"
       id="filter3867">
      <feGaussianBlur
         inkscape:collect="always"
         stdDeviation="1.3"
         id="feGaussianBlur3869" />
    </filter>
  </defs>
  <sodipodi:namedview
     id="base"
     pagecolor="#ffffff"
     bordercolor="#666666"
     borderopacity="1.0"
     inkscape:pageopacity="0.0"
     inkscape:pageshadow="2"
     inkscape:zoom="4.9497475"
     inkscape:cx="16.209042"
     inkscape:cy="13.21151"
     inkscape:current-layer="layer1"
     showgrid="true"
     inkscape:grid-bbox="true"
     inkscape:document-units="px"
     showguides="true"
     inkscape:guide-bbox="true"
     inkscape:window-width="921"
     inkscape:window-height="755"
     inkscape:window-x="1478"
     inkscape:window-y="261"
     inkscape:window-maximized="0" />
  <metadata
     id="metadata3047">
    <rdf:RDF>
      <cc:Work
         rdf:about="">
        <dc:format>image/svg+xml</dc:format>
        <dc:type
           rdf:resource="http://purl.org/dc/dcmitype/StillImage" />
        <dc:title></dc:title>
      </cc:Work>
    </rdf:RDF>
  </metadata>
  <g
     inkscape:groupmode="layer"
     id="layer3"
     inkscape:label="shadow"
     sodipodi:insensitive="true">
    <rect
       style="fill:#000000;fill-rule:evenodd;stroke:#000000;stroke-width:1px;stroke-linecap:butt;stroke-linejoin:miter;stroke-opacity:1;filter:url(#filter3867)"
       id="rect3066-1"
       width="40.857143"
       height="40.857143"
       x="3.6305997"
       y="3.7734585"
       ry="4.1428571" />
  </g>
  <g
     inkscape:groupmode="layer"
     id="layer2"
     inkscape:label="black_back"
     sodipodi:insensitive="true">
    <rect
       style="fill:#000000;fill-rule:evenodd;stroke:#000000;stroke-width:1px;stroke-linecap:butt;stroke-linejoin:miter;stroke-opacity:1"
       id="rect3066"
       width="40.857143"
       height="40.857143"
       x="3.2265396"
       y="3.3693976"
       ry="4.1428571" />
  </g>
  <g
     id="layer1"
     inkscape:label="Layer 1"
     inkscape:groupmode="layer"
     style="display:inline">
    <path
       style="font-size:medium;font-style:normal;font-variant:normal;font-weight:normal;font-stretch:normal;text-indent:0;text-align:start;text-decoration:none;line-height:normal;letter-spacing:normal;word-spacing:normal;text-transform:none;direction:ltr;block-progression:tb;writing-mode:lr-tb;text-anchor:start;baseline-shift:baseline;color:#000000;fill:#fff3de;fill-opacity:1;fill-rule:nonzero;stroke:#fff300;stroke-width:0.21867347;stroke-miterlimit:4;stroke-dasharray:none;marker:none;visibility:visible;display:inline;overflow:visible;filter:url(#filter4428);enable-background:accumulate;font-family:Sans;-inkscape-font-specification:Sans"
       d="m 28.361452,6.4572311 c -3.56195,0 -6.18848,3.37038 -6.18848,7.2093499 l 0,28.96715 c 0,3.83897 2.62655,7.20934 6.18848,7.20934 l 31.005944,0 c 3.56194,0 6.18853,-3.37037 6.18853,-7.20934 l 0,-28.96715 c 0,-3.8389699 -2.62659,-7.2093499 -6.18853,-7.2093499 l -31.005944,0 z m 47.985394,0 c -3.56193,0 -6.18849,3.37038 -6.18849,7.2093499 l 0,28.96715 c 0,3.83897 2.62656,7.20934 6.18849,7.20934 l 31.005964,0 c 3.56195,0 6.1885,-3.37037 6.1885,-7.20934 l 0,-28.96715 c 0,-3.8389699 -2.62655,-7.2093499 -6.1885,-7.2093499 l -31.005964,0 z m 0,2.76839 31.005964,0 c 1.7609,0 3.42011,1.8277299 3.42011,4.4409599 l 0,28.96715 c 0,2.61323 -1.65921,4.44096 -3.42011,4.44096 l -31.005964,0 c -1.7609,0 -3.42009,-1.82773 -3.42009,-4.44096 l 0,-28.96715 c 0,-2.61323 1.65919,-4.4409599 3.42009,-4.4409599 z M 28.361452,54.442641 c -3.56195,0 -6.18848,3.37038 -6.18848,7.20934 l 0,28.967152 c 0,3.83897 2.62655,7.20935 6.18848,7.20935 l 31.005944,0 c 3.56194,0 6.18853,-3.37038 6.18853,-7.20935 l 0,-28.967152 c 0,-3.83896 -2.62659,-7.20934 -6.18853,-7.20934 l -31.005944,0 z m 0,2.76839 31.005944,0 c 1.76093,0 3.42014,1.82772 3.42014,4.44095 l 0,28.967152 c 0,2.61324 -1.65921,4.44096 -3.42014,4.44096 l -31.005944,0 c -1.76088,0 -3.42012,-1.82772 -3.42012,-4.44096 l 0,-28.967152 c 0,-2.61323 1.65924,-4.44095 3.42012,-4.44095 z"
       id="rect4305-1-1"
       inkscape:connector-curvature="0"
       transform="matrix(0.36393857,0,0,0.36393857,-1.646811,4.215081)" />
    <path
       style="font-size:medium;font-style:normal;font-variant:normal;font-weight:normal;font-stretch:normal;text-indent:0;text-align:start;text-decoration:none;line-height:normal;letter-spacing:normal;word-spacing:normal;text-transform:none;direction:ltr;block-progression:tb;writing-mode:lr-tb;text-anchor:start;baseline-shift:baseline;color:#000000;fill:#fff3de;fill-opacity:1;fill-rule:nonzero;stroke:#fff300;stroke-width:0.07958369;stroke-miterlimit:4;stroke-dasharray:none;marker:none;visibility:visible;display:inline;overflow:visible;enable-background:accumulate;font-family:Sans;-inkscape-font-specification:Sans"
       d="m 9.483138,7.3732387 c -1.296332,0 -2.252227,1.2266112 -2.252227,2.6237606 l 0,10.5422637 c 0,1.397149 0.955903,2.623755 2.252227,2.623755 l 11.284258,0 c 1.296328,0 2.252245,-1.226606 2.252245,-2.623755 l 0,-10.5422637 c 0,-1.3971494 -0.955917,-2.6237606 -2.252245,-2.6237606 l -11.284258,0 z m 17.463736,0 c -1.296324,0 -2.252231,1.2266112 -2.252231,2.6237606 l 0,10.5422637 c 0,1.397149 0.955907,2.623755 2.252231,2.623755 l 11.284264,0 c 1.296332,0 2.252235,-1.226606 2.252235,-2.623755 l 0,-10.5422637 c 0,-1.3971494 -0.955903,-2.6237606 -2.252235,-2.6237606 l -11.284264,0 z m 0,1.0075234 11.284264,0 c 0.640861,0 1.244711,0.6651814 1.244711,1.6162372 l 0,10.5422637 c 0,0.951055 -0.60385,1.616237 -1.244711,1.616237 l -11.284264,0 c -0.64086,0 -1.244703,-0.665182 -1.244703,-1.616237 l 0,-10.5422637 c 0,-0.9510558 0.603843,-1.6162372 1.244703,-1.6162372 z M 9.483138,24.83698 c -1.296332,0 -2.252227,1.226612 -2.252227,2.623757 l 0,10.542264 c 0,1.39715 0.955903,2.62376 2.252227,2.62376 l 11.284258,0 c 1.296328,0 2.252245,-1.22661 2.252245,-2.62376 l 0,-10.542264 c 0,-1.397145 -0.955917,-2.623757 -2.252245,-2.623757 l -11.284258,0 z m 0,1.007525 11.284258,0 c 0.64087,0 1.24472,0.665177 1.24472,1.616232 l 0,10.542264 c 0,0.951059 -0.60385,1.616236 -1.24472,1.616236 l -11.284258,0 c -0.640853,0 -1.244715,-0.665177 -1.244715,-1.616236 l 0,-10.542264 c 0,-0.951055 0.603862,-1.616232 1.244715,-1.616232 z"
       id="rect4305-1"
       inkscape:connector-curvature="0" />
  </g>
</svg>
