<?xml version="1.0" encoding="UTF-8" standalone="no"?>
<!-- Created with Inkscape (http://www.inkscape.org/) -->

<svg
   xmlns:dc="http://purl.org/dc/elements/1.1/"
   xmlns:cc="http://creativecommons.org/ns#"
   xmlns:rdf="http://www.w3.org/1999/02/22-rdf-syntax-ns#"
   xmlns:svg="http://www.w3.org/2000/svg"
   xmlns="http://www.w3.org/2000/svg"
   xmlns:sodipodi="http://sodipodi.sourceforge.net/DTD/sodipodi-0.dtd"
   xmlns:inkscape="http://www.inkscape.org/namespaces/inkscape"
   width="16"
   height="16"
   id="svg3042"
   version="1.1"
   inkscape:version="0.48.2 r9819"
   sodipodi:docname="MainIcon-tiny.svg"
   inkscape:export-filename="C:\Projects\Vintage\vintage\res-src\MainIcon-16.png"
   inkscape:export-xdpi="89.388901"
   inkscape:export-ydpi="89.388901">
  <defs
     id="defs3044">
    <filter
       inkscape:collect="always"
       id="filter3877"
       x="-0.17814694"
       width="1.3562939"
       y="-0.17813506"
       height="1.3562701">
      <feGaussianBlur
         inkscape:collect="always"
         stdDeviation="0.41289777"
         id="feGaussianBlur3879" />
    </filter>
    <filter
       inkscape:collect="always"
       id="filter3881"
       x="-0.17814697"
       width="1.3562939"
       y="-0.17813506"
       height="1.3562701">
      <feGaussianBlur
         inkscape:collect="always"
         stdDeviation="0.41289777"
         id="feGaussianBlur3883" />
    </filter>
    <filter
       inkscape:collect="always"
       id="filter3885"
       x="-0.17814697"
       width="1.3562939"
       y="-0.17813503"
       height="1.3562701">
      <feGaussianBlur
         inkscape:collect="always"
         stdDeviation="0.41289777"
         id="feGaussianBlur3887" />
    </filter>
    <filter
       inkscape:collect="always"
       id="filter3915">
      <feGaussianBlur
         inkscape:collect="always"
         stdDeviation="0.2464285"
         id="feGaussianBlur3917" />
    </filter>
    <filter
       inkscape:collect="always"
       id="filter3842">
      <feGaussianBlur
         inkscape:collect="always"
         stdDeviation="0.283604"
         id="feGaussianBlur3844" />
    </filter>
  </defs>
  <sodipodi:namedview
     id="base"
     pagecolor="#ffffff"
     bordercolor="#666666"
     borderopacity="1.0"
     inkscape:pageopacity="0.0"
     inkscape:pageshadow="2"
     inkscape:zoom="2"
     inkscape:cx="0.98253862"
     inkscape:cy="-39.986454"
     inkscape:current-layer="layer3"
     showgrid="false"
     inkscape:grid-bbox="true"
     inkscape:document-units="px"
     showguides="true"
     inkscape:guide-bbox="true"
     inkscape:window-width="1157"
     inkscape:window-height="900"
     inkscape:window-x="2033"
     inkscape:window-y="49"
     inkscape:window-maximized="0"
     inkscape:snap-global="false">
    <inkscape:grid
       type="xygrid"
       id="grid3885"
       empspacing="5"
       visible="true"
       enabled="true"
       snapvisiblegridlinesonly="true" />
  </sodipodi:namedview>
  <metadata
     id="metadata3047">
    <rdf:RDF>
      <cc:Work
         rdf:about="">
        <dc:format>image/svg+xml</dc:format>
        <dc:type
           rdf:resource="http://purl.org/dc/dcmitype/StillImage" />
        <dc:title></dc:title>
      </cc:Work>
    </rdf:RDF>
  </metadata>
  <g
     inkscape:groupmode="layer"
     id="layer3"
     inkscape:label="shadow"
     style="opacity:1;display:inline"
     transform="translate(0,-32)">
    <rect
       style="fill:#333333;fill-opacity:1;fill-rule:evenodd;stroke:none;display:inline;filter:url(#filter3842)"
       id="rect3066-1"
       width="14.926526"
       height="14.926526"
       x="0.53877491"
       y="32.534798"
       ry="2.2273591" />
  </g>
  <g
     inkscape:groupmode="layer"
     id="layer2"
     inkscape:label="black_back"
     transform="translate(0,-32)"
     style="opacity:1;display:inline"
     sodipodi:insensitive="true">
    <rect
       style="fill:#333333;fill-opacity:1;fill-rule:evenodd;stroke:none"
       id="rect3066"
       width="14.926526"
       height="14.926526"
       x="0.53877491"
       y="32.534798"
       ry="2.2273591" />
  </g>
  <g
     id="layer1"
     inkscape:label="Layer 1"
     inkscape:groupmode="layer"
     style="display:inline"
     transform="translate(0,-32)"
     sodipodi:insensitive="true">
    <path
       style="font-size:medium;font-style:normal;font-variant:normal;font-weight:normal;font-stretch:normal;text-indent:0;text-align:start;text-decoration:none;line-height:normal;letter-spacing:normal;word-spacing:normal;text-transform:none;direction:ltr;block-progression:tb;writing-mode:lr-tb;text-anchor:start;baseline-shift:baseline;color:#000000;fill:#fff3de;fill-opacity:1;fill-rule:nonzero;stroke:#fff300;stroke-width:0.02856579;stroke-miterlimit:4;stroke-dasharray:none;marker:none;visibility:visible;display:inline;overflow:visible;enable-background:accumulate;font-family:Sans;-inkscape-font-specification:Sans"
       d="m 9.6983287,39.347197 c -0.4653046,0 -1.0135241,-0.645328 -1.0135241,-1.14682 l 0,-3.373885 c 0,-0.501495 0.5482216,-1.146884 1.0135241,-1.146884 l 3.6401573,0 c 0.465305,0 1.013529,0.645389 1.013529,1.146884 l 0,3.373824 c 0,0.501492 -0.548224,1.146881 -1.013529,1.146881 z m 0.00132,-0.423011 3.6375643,0 c 0.230032,0 0.591811,-0.383793 0.591811,-0.725164 l 0,-3.371234 c 0,-0.341374 -0.361779,-0.725166 -0.591811,-0.725166 l -3.6375633,0 c -0.2300273,0 -0.5918115,0.383792 -0.5918115,0.725166 l 0,3.371234 c 0,0.341371 0.3617821,0.725164 0.5918115,0.725164 z"
       id="rect4305-1-4-3"
       inkscape:connector-curvature="0"
       sodipodi:nodetypes="ssssssssssssssssss" />
    <path
       style="font-size:medium;font-style:normal;font-variant:normal;font-weight:normal;font-stretch:normal;text-indent:0;text-align:start;text-decoration:none;line-height:normal;letter-spacing:normal;word-spacing:normal;text-transform:none;direction:ltr;block-progression:tb;writing-mode:lr-tb;text-anchor:start;baseline-shift:baseline;color:#000000;fill:#fff3de;fill-opacity:1;fill-rule:nonzero;stroke:#fff300;stroke-width:0.02856579;stroke-miterlimit:4;stroke-dasharray:none;marker:none;visibility:visible;display:inline;overflow:visible;enable-background:accumulate;font-family:Sans;-inkscape-font-specification:Sans"
       d="m 2.7138678,39.347197 c -0.4653066,0 -1.0135241,-0.645328 -1.0135241,-1.14682 l 0,-3.373885 c 0,-0.501495 0.5482195,-1.146884 1.0135241,-1.146884 l 3.6401573,0 c 0.4653036,0 1.0135282,0.645389 1.0135282,1.146884 l 0,3.373824 c 0,0.501492 -0.5482246,1.146881 -1.0135282,1.146881 z"
       id="rect4305-1-4-2-4"
       inkscape:connector-curvature="0"
       sodipodi:nodetypes="sssssssss" />
    <path
       style="font-size:medium;font-style:normal;font-variant:normal;font-weight:normal;font-stretch:normal;text-indent:0;text-align:start;text-decoration:none;line-height:normal;letter-spacing:normal;word-spacing:normal;text-transform:none;direction:ltr;block-progression:tb;writing-mode:lr-tb;text-anchor:start;baseline-shift:baseline;color:#000000;fill:#fff3de;fill-opacity:1;fill-rule:nonzero;stroke:#fff300;stroke-width:0.02856579;stroke-miterlimit:4;stroke-dasharray:none;marker:none;visibility:visible;display:inline;overflow:visible;enable-background:accumulate;font-family:Sans;-inkscape-font-specification:Sans"
       d="m 2.6760933,46.344179 c -0.4653066,0 -1.0135241,-0.645329 -1.0135241,-1.14682 l 0,-3.373886 c 0,-0.501494 0.5482205,-1.146884 1.0135241,-1.146884 l 3.6401573,0 c 0.4653036,0 1.0135282,0.64539 1.0135282,1.146884 l 0,3.373825 c 0,0.501492 -0.5482246,1.146881 -1.0135282,1.146881 z m 0.00132,-0.423013 3.6375644,0 c 0.2300335,0 0.5918125,-0.383792 0.5918125,-0.725162 l 0,-3.371235 c 0,-0.341374 -0.361779,-0.725167 -0.5918125,-0.725167 l -3.6375644,0 c -0.2300284,0 -0.5918115,0.383793 -0.5918115,0.725167 l 0,3.371235 c 0,0.34137 0.3617831,0.725162 0.5918115,0.725162 z"
       id="rect4305-1-4-0-0"
       inkscape:connector-curvature="0"
       sodipodi:nodetypes="ssssssssssssssssss" />
    <path
       style="font-size:medium;font-style:normal;font-variant:normal;font-weight:normal;font-stretch:normal;text-indent:0;text-align:start;text-decoration:none;line-height:normal;letter-spacing:normal;word-spacing:normal;text-transform:none;direction:ltr;block-progression:tb;writing-mode:lr-tb;text-anchor:start;baseline-shift:baseline;color:#000000;fill:#fff3de;fill-opacity:1;fill-rule:nonzero;stroke:#fff300;stroke-width:0.02803834;stroke-miterlimit:4;stroke-dasharray:none;marker:none;visibility:visible;display:inline;overflow:visible;filter:url(#filter3877);enable-background:accumulate;font-family:Sans;-inkscape-font-specification:Sans"
       d="m 9.667474,39.334427 c -0.456713,0 -0.99481,-0.633412 -0.99481,-1.125645 l 0,-3.311588 c 0,-0.492235 0.538099,-1.125707 0.99481,-1.125707 l 3.572944,0 c 0.456713,0 0.994815,0.633472 0.994815,1.125707 l 0,3.311529 c 0,0.492232 -0.538102,1.125704 -0.994815,1.125704 z m 0.0013,-0.4152 3.570399,0 c 0.225785,0 0.580884,-0.376707 0.580884,-0.711775 l 0,-3.308986 c 0,-0.33507 -0.355099,-0.711776 -0.580884,-0.711776 l -3.570398,0 c -0.22578,0 -0.580884,0.376706 -0.580884,0.711776 l 0,3.308986 c 0,0.335068 0.355102,0.711775 0.580884,0.711775 z"
       id="rect4305-1-4-3-1"
       inkscape:connector-curvature="0"
       sodipodi:nodetypes="ssssssssssssssssss"
       transform="matrix(1.0188118,0,0,1.0188118,-0.15100742,-0.72717991)" />
    <path
       style="font-size:medium;font-style:normal;font-variant:normal;font-weight:normal;font-stretch:normal;text-indent:0;text-align:start;text-decoration:none;line-height:normal;letter-spacing:normal;word-spacing:normal;text-transform:none;direction:ltr;block-progression:tb;writing-mode:lr-tb;text-anchor:start;baseline-shift:baseline;color:#000000;fill:#fff3de;fill-opacity:1;fill-rule:nonzero;stroke:#fff300;stroke-width:0.02803834;stroke-miterlimit:4;stroke-dasharray:none;marker:none;visibility:visible;display:inline;overflow:visible;filter:url(#filter3881);enable-background:accumulate;font-family:Sans;-inkscape-font-specification:Sans"
       d="m 2.762402,39.334427 c -0.456715,0 -0.99481,-0.633412 -0.99481,-1.125645 l 0,-3.311588 c 0,-0.492235 0.538097,-1.125707 0.99481,-1.125707 l 3.572944,0 c 0.456712,0 0.994814,0.633472 0.994814,1.125707 l 0,3.311529 c 0,0.492232 -0.538102,1.125704 -0.994814,1.125704 z"
       id="rect4305-1-4-2-4-7"
       inkscape:connector-curvature="0"
       sodipodi:nodetypes="sssssssss"
       transform="matrix(1.0188118,0,0,1.0188118,-0.1004998,-0.72717991)" />
    <path
       style="font-size:medium;font-style:normal;font-variant:normal;font-weight:normal;font-stretch:normal;text-indent:0;text-align:start;text-decoration:none;line-height:normal;letter-spacing:normal;word-spacing:normal;text-transform:none;direction:ltr;block-progression:tb;writing-mode:lr-tb;text-anchor:start;baseline-shift:baseline;color:#000000;fill:#fff3de;fill-opacity:1;fill-rule:nonzero;stroke:#fff300;stroke-width:0.02803834;stroke-miterlimit:4;stroke-dasharray:none;marker:none;visibility:visible;display:inline;overflow:visible;filter:url(#filter3885);enable-background:accumulate;font-family:Sans;-inkscape-font-specification:Sans"
       d="m 2.725325,46.276577 c -0.456715,0 -0.99481,-0.633413 -0.99481,-1.125645 l 0,-3.311589 c 0,-0.492234 0.538098,-1.125707 0.99481,-1.125707 l 3.572944,0 c 0.456712,0 0.994814,0.633473 0.994814,1.125707 l 0,3.31153 c 0,0.492232 -0.538102,1.125704 -0.994814,1.125704 z m 0.0013,-0.415202 3.570399,0 c 0.225786,0 0.580885,-0.376706 0.580885,-0.711773 l 0,-3.308987 c 0,-0.33507 -0.355099,-0.711777 -0.580885,-0.711777 l -3.570399,0 c -0.225781,0 -0.580884,0.376707 -0.580884,0.711777 l 0,3.308987 c 0,0.335067 0.355103,0.711773 0.580884,0.711773 z"
       id="rect4305-1-4-0-0-4"
       inkscape:connector-curvature="0"
       sodipodi:nodetypes="ssssssssssssssssss"
       transform="matrix(1.0188118,0,0,1.0188118,-0.1004998,-0.80294134)" />
  </g>
</svg>
