<?xml version="1.0" encoding="UTF-8" standalone="no"?>
<!-- Created with Inkscape (http://www.inkscape.org/) -->

<svg
   xmlns:dc="http://purl.org/dc/elements/1.1/"
   xmlns:cc="http://creativecommons.org/ns#"
   xmlns:rdf="http://www.w3.org/1999/02/22-rdf-syntax-ns#"
   xmlns:svg="http://www.w3.org/2000/svg"
   xmlns="http://www.w3.org/2000/svg"
   xmlns:sodipodi="http://sodipodi.sourceforge.net/DTD/sodipodi-0.dtd"
   xmlns:inkscape="http://www.inkscape.org/namespaces/inkscape"
   width="16"
   height="16"
   id="svg3042"
   version="1.1"
   inkscape:version="0.48.2 r9819"
   sodipodi:docname="MainIcon-small.svg"
   inkscape:export-filename="C:\Users\imizus\Projects\Vintage\vintage\res\MainIcon-32.png"
   inkscape:export-xdpi="174.48973"
   inkscape:export-ydpi="174.48973">
  <defs
     id="defs3044">
    <filter
       inkscape:collect="always"
       id="filter3823"
       x="-0.12"
       width="1.24"
       y="-0.12"
       height="1.24"
       color-interpolation-filters="sRGB">
      <feGaussianBlur
         inkscape:collect="always"
         stdDeviation="2.0428572"
         id="feGaussianBlur3825" />
    </filter>
    <filter
       inkscape:collect="always"
       id="filter3911"
       x="-0.28309467"
       width="1.5661893"
       y="-0.28307584"
       height="1.5661517"
       color-interpolation-filters="sRGB">
      <feGaussianBlur
         inkscape:collect="always"
         stdDeviation="1.5580339"
         id="feGaussianBlur3913" />
    </filter>
    <filter
       inkscape:collect="always"
       id="filter3915"
       x="-0.28309694"
       width="1.5661939"
       y="-0.28307807"
       height="1.5661561"
       color-interpolation-filters="sRGB">
      <feGaussianBlur
         inkscape:collect="always"
         stdDeviation="1.5580339"
         id="feGaussianBlur3917" />
    </filter>
    <filter
       inkscape:collect="always"
       id="filter3919"
       x="-0.28309467"
       width="1.5661894"
       y="-0.28307581"
       height="1.5661516"
       color-interpolation-filters="sRGB">
      <feGaussianBlur
         inkscape:collect="always"
         stdDeviation="1.5580339"
         id="feGaussianBlur3921" />
    </filter>
    <filter
       inkscape:collect="always"
       id="filter3989"
       x="-0.19018633"
       width="1.3803727"
       y="-0.19017368"
       height="1.3803474">
      <feGaussianBlur
         inkscape:collect="always"
         stdDeviation="0.38097881"
         id="feGaussianBlur3991" />
    </filter>
    <filter
       inkscape:collect="always"
       id="filter3993"
       x="-0.19018475"
       width="1.3803695"
       y="-0.19017209"
       height="1.3803442">
      <feGaussianBlur
         inkscape:collect="always"
         stdDeviation="0.38097881"
         id="feGaussianBlur3995" />
    </filter>
    <filter
       inkscape:collect="always"
       id="filter3997"
       x="-0.19018637"
       width="1.3803727"
       y="-0.19017368"
       height="1.3803474">
      <feGaussianBlur
         inkscape:collect="always"
         stdDeviation="0.38097881"
         id="feGaussianBlur3999" />
    </filter>
    <filter
       inkscape:collect="always"
       id="filter4085"
       x="-0.19087174"
       width="1.3817435"
       y="-0.19085899"
       height="1.381718">
      <feGaussianBlur
         inkscape:collect="always"
         stdDeviation="0.38235172"
         id="feGaussianBlur4087" />
    </filter>
    <filter
       inkscape:collect="always"
       id="filter4089"
       x="-0.19087174"
       width="1.3817435"
       y="-0.19085899"
       height="1.381718">
      <feGaussianBlur
         inkscape:collect="always"
         stdDeviation="0.38235172"
         id="feGaussianBlur4091" />
    </filter>
    <filter
       inkscape:collect="always"
       id="filter4093"
       x="-0.19087174"
       width="1.3817435"
       y="-0.19085899"
       height="1.381718">
      <feGaussianBlur
         inkscape:collect="always"
         stdDeviation="0.38235172"
         id="feGaussianBlur4095" />
    </filter>
  </defs>
  <sodipodi:namedview
     id="base"
     pagecolor="#ffffff"
     bordercolor="#666666"
     borderopacity="1.0"
     inkscape:pageopacity="0.0"
     inkscape:pageshadow="2"
     inkscape:zoom="19.79899"
     inkscape:cx="15.193257"
     inkscape:cy="5.9574861"
     inkscape:current-layer="layer1"
     showgrid="true"
     inkscape:grid-bbox="true"
     inkscape:document-units="px"
     showguides="true"
     inkscape:guide-bbox="true"
     inkscape:window-width="1304"
     inkscape:window-height="755"
     inkscape:window-x="-32000"
     inkscape:window-y="-32000"
     inkscape:window-maximized="0"
     inkscape:snap-global="false">
    <inkscape:grid
       type="xygrid"
       id="grid3885"
       empspacing="5"
       visible="true"
       enabled="true"
       snapvisiblegridlinesonly="true" />
  </sodipodi:namedview>
  <metadata
     id="metadata3047">
    <rdf:RDF>
      <cc:Work
         rdf:about="">
        <dc:format>image/svg+xml</dc:format>
        <dc:type
           rdf:resource="http://purl.org/dc/dcmitype/StillImage" />
        <dc:title></dc:title>
      </cc:Work>
    </rdf:RDF>
  </metadata>
  <g
     inkscape:groupmode="layer"
     id="layer3"
     inkscape:label="shadow"
     style="display:inline"
     transform="translate(0,-32)">
    <rect
       style="fill:#000000;fill-rule:evenodd;stroke:#000000;stroke-width:1px;stroke-linecap:butt;stroke-linejoin:miter;stroke-opacity:1;filter:url(#filter3823)"
       id="rect3066-1"
       width="40.857143"
       height="40.857143"
       x="4.0591712"
       y="4.0591726"
       ry="7.2857146"
       transform="matrix(0.31956323,0,0,0.31956323,0.41710674,32.35854)" />
  </g>
  <g
     inkscape:groupmode="layer"
     id="layer2"
     inkscape:label="black_back"
     transform="translate(0,-32)">
    <rect
       style="fill:#333333;fill-opacity:1;fill-rule:evenodd;stroke:none"
       id="rect3066"
       width="13.05644"
       height="13.05644"
       x="1.4770365"
       y="33.39957"
       ry="2.1912906" />
  </g>
  <g
     id="layer1"
     inkscape:label="Layer 1"
     inkscape:groupmode="layer"
     style="display:inline"
     transform="translate(0,-32)">
    <path
       style="font-size:medium;font-style:normal;font-variant:normal;font-weight:normal;font-stretch:normal;text-indent:0;text-align:start;text-decoration:none;line-height:normal;letter-spacing:normal;word-spacing:normal;text-transform:none;direction:ltr;block-progression:tb;writing-mode:lr-tb;text-anchor:start;baseline-shift:baseline;color:#000000;fill:#fff3de;fill-opacity:1;fill-rule:nonzero;stroke:#fff300;stroke-width:0.02423314000000000;stroke-miterlimit:4;stroke-dasharray:none;marker:none;visibility:visible;display:inline;overflow:visible;enable-background:accumulate;font-family:Sans;-inkscape-font-specification:Sans;filter:url(#filter4089)"
       d="m 9.46667,39.354959 c -0.394731,0 -0.8598,-0.547449 -0.8598,-0.972879 l 0,-2.862158 c 0,-0.425431 0.465071,-0.972932 0.8598,-0.972932 l 3.088044,0 c 0.39473,0 0.859804,0.547501 0.859804,0.972932 l 0,2.862107 c 0,0.425429 -0.465074,0.97293 -0.859804,0.97293 z m 0.0011,-0.358852 3.085845,0 c 0.195143,0 0.50205,-0.325582 0.50205,-0.615176 l 0,-2.85991 c 0,-0.289596 -0.306907,-0.615178 -0.50205,-0.615178 l -3.085844,0 c -0.195139,0 -0.50205,0.325582 -0.50205,0.615178 l 0,2.85991 c 0,0.289594 0.30691,0.615176 0.50205,0.615176 z"
       id="rect4305-1-4"
       inkscape:connector-curvature="0"
       sodipodi:nodetypes="ssssssssssssssssss" />
    <path
       style="font-size:medium;font-style:normal;font-variant:normal;font-weight:normal;font-stretch:normal;text-indent:0;text-align:start;text-decoration:none;line-height:normal;letter-spacing:normal;word-spacing:normal;text-transform:none;direction:ltr;block-progression:tb;writing-mode:lr-tb;text-anchor:start;baseline-shift:baseline;color:#000000;fill:#fff3de;fill-opacity:1;fill-rule:nonzero;stroke:#fff300;stroke-width:0.02423314000000000;stroke-miterlimit:4;stroke-dasharray:none;marker:none;visibility:visible;display:inline;overflow:visible;enable-background:accumulate;font-family:Sans;-inkscape-font-specification:Sans;filter:url(#filter4093)"
       d="m 3.498715,39.354959 c -0.394732,0 -0.8598,-0.547449 -0.8598,-0.972879 l 0,-2.862158 c 0,-0.425431 0.46507,-0.972932 0.8598,-0.972932 l 3.088044,0 c 0.39473,0 0.859804,0.547501 0.859804,0.972932 l 0,2.862107 c 0,0.425429 -0.465074,0.97293 -0.859804,0.97293 z"
       id="rect4305-1-4-2"
       inkscape:connector-curvature="0"
       sodipodi:nodetypes="sssssssss" />
    <path
       style="font-size:medium;font-style:normal;font-variant:normal;font-weight:normal;font-stretch:normal;text-indent:0;text-align:start;text-decoration:none;line-height:normal;letter-spacing:normal;word-spacing:normal;text-transform:none;direction:ltr;block-progression:tb;writing-mode:lr-tb;text-anchor:start;baseline-shift:baseline;color:#000000;fill:#fff3de;fill-opacity:1;fill-rule:nonzero;stroke:#fff300;stroke-width:0.02423314000000000;stroke-miterlimit:4;stroke-dasharray:none;marker:none;visibility:visible;display:inline;overflow:visible;enable-background:accumulate;font-family:Sans;-inkscape-font-specification:Sans;filter:url(#filter4085)"
       d="m 3.46667,45.354959 c -0.394732,0 -0.8598,-0.547449 -0.8598,-0.972879 l 0,-2.862158 c 0,-0.425431 0.46507,-0.972932 0.8598,-0.972932 l 3.088044,0 c 0.39473,0 0.859804,0.547501 0.859804,0.972932 l 0,2.862107 c 0,0.425429 -0.465074,0.97293 -0.859804,0.97293 z m 0.0011,-0.358852 3.085845,0 c 0.195143,0 0.50205,-0.325582 0.50205,-0.615176 l 0,-2.85991 c 0,-0.289596 -0.306907,-0.615178 -0.50205,-0.615178 l -3.085845,0 c -0.195139,0 -0.50205,0.325582 -0.50205,0.615178 l 0,2.85991 c 0,0.289594 0.306911,0.615176 0.50205,0.615176 z"
       id="rect4305-1-4-0"
       inkscape:connector-curvature="0"
       sodipodi:nodetypes="ssssssssssssssssss" />
    <path
       style="font-size:medium;font-style:normal;font-variant:normal;font-weight:normal;font-stretch:normal;text-indent:0;text-align:start;text-decoration:none;line-height:normal;letter-spacing:normal;word-spacing:normal;text-transform:none;direction:ltr;block-progression:tb;writing-mode:lr-tb;text-anchor:start;baseline-shift:baseline;color:#000000;fill:#fff3de;fill-opacity:1;fill-rule:nonzero;stroke:#fff300;stroke-width:0.02423314;stroke-miterlimit:4;stroke-dasharray:none;marker:none;visibility:visible;display:inline;overflow:visible;enable-background:accumulate;font-family:Sans;-inkscape-font-specification:Sans"
       d="m 9.46667,39.354959 c -0.394731,0 -0.8598,-0.547449 -0.8598,-0.972879 l 0,-2.862158 c 0,-0.425431 0.465071,-0.972932 0.8598,-0.972932 l 3.088044,0 c 0.39473,0 0.859804,0.547501 0.859804,0.972932 l 0,2.862107 c 0,0.425429 -0.465074,0.97293 -0.859804,0.97293 z m 0.0011,-0.358852 3.085845,0 c 0.195143,0 0.50205,-0.325582 0.50205,-0.615176 l 0,-2.85991 c 0,-0.289596 -0.306907,-0.615178 -0.50205,-0.615178 l -3.085844,0 c -0.195139,0 -0.50205,0.325582 -0.50205,0.615178 l 0,2.85991 c 0,0.289594 0.30691,0.615176 0.50205,0.615176 z"
       id="rect4305-1-4-3"
       inkscape:connector-curvature="0"
       sodipodi:nodetypes="ssssssssssssssssss" />
    <path
       style="font-size:medium;font-style:normal;font-variant:normal;font-weight:normal;font-stretch:normal;text-indent:0;text-align:start;text-decoration:none;line-height:normal;letter-spacing:normal;word-spacing:normal;text-transform:none;direction:ltr;block-progression:tb;writing-mode:lr-tb;text-anchor:start;baseline-shift:baseline;color:#000000;fill:#fff3de;fill-opacity:1;fill-rule:nonzero;stroke:#fff300;stroke-width:0.02423314;stroke-miterlimit:4;stroke-dasharray:none;marker:none;visibility:visible;display:inline;overflow:visible;enable-background:accumulate;font-family:Sans;-inkscape-font-specification:Sans"
       d="m 3.498715,39.354959 c -0.394732,0 -0.8598,-0.547449 -0.8598,-0.972879 l 0,-2.862158 c 0,-0.425431 0.46507,-0.972932 0.8598,-0.972932 l 3.088044,0 c 0.39473,0 0.859804,0.547501 0.859804,0.972932 l 0,2.862107 c 0,0.425429 -0.465074,0.97293 -0.859804,0.97293 z"
       id="rect4305-1-4-2-4"
       inkscape:connector-curvature="0"
       sodipodi:nodetypes="sssssssss" />
    <path
       style="font-size:medium;font-style:normal;font-variant:normal;font-weight:normal;font-stretch:normal;text-indent:0;text-align:start;text-decoration:none;line-height:normal;letter-spacing:normal;word-spacing:normal;text-transform:none;direction:ltr;block-progression:tb;writing-mode:lr-tb;text-anchor:start;baseline-shift:baseline;color:#000000;fill:#fff3de;fill-opacity:1;fill-rule:nonzero;stroke:#fff300;stroke-width:0.02423314;stroke-miterlimit:4;stroke-dasharray:none;marker:none;visibility:visible;display:inline;overflow:visible;enable-background:accumulate;font-family:Sans;-inkscape-font-specification:Sans"
       d="m 3.46667,45.354959 c -0.394732,0 -0.8598,-0.547449 -0.8598,-0.972879 l 0,-2.862158 c 0,-0.425431 0.46507,-0.972932 0.8598,-0.972932 l 3.088044,0 c 0.39473,0 0.859804,0.547501 0.859804,0.972932 l 0,2.862107 c 0,0.425429 -0.465074,0.97293 -0.859804,0.97293 z m 0.0011,-0.358852 3.085845,0 c 0.195143,0 0.50205,-0.325582 0.50205,-0.615176 l 0,-2.85991 c 0,-0.289596 -0.306907,-0.615178 -0.50205,-0.615178 l -3.085845,0 c -0.195139,0 -0.50205,0.325582 -0.50205,0.615178 l 0,2.85991 c 0,0.289594 0.306911,0.615176 0.50205,0.615176 z"
       id="rect4305-1-4-0-0"
       inkscape:connector-curvature="0"
       sodipodi:nodetypes="ssssssssssssssssss" />
  </g>
</svg>
