<?xml version="1.0" encoding="UTF-8" standalone="no"?>
<!-- Created with Inkscape (http://www.inkscape.org/) -->

<svg
   xmlns:dc="http://purl.org/dc/elements/1.1/"
   xmlns:cc="http://creativecommons.org/ns#"
   xmlns:rdf="http://www.w3.org/1999/02/22-rdf-syntax-ns#"
   xmlns:svg="http://www.w3.org/2000/svg"
   xmlns="http://www.w3.org/2000/svg"
   xmlns:sodipodi="http://sodipodi.sourceforge.net/DTD/sodipodi-0.dtd"
   xmlns:inkscape="http://www.inkscape.org/namespaces/inkscape"
   width="16"
   height="16"
   id="svg3042"
   version="1.1"
   inkscape:version="0.48.2 r9819"
   sodipodi:docname="MainIcon-tiny.svg"
   inkscape:export-filename="C:\Users\imizus\Projects\Vintage\vintage\res\MainIcon-16.png"
   inkscape:export-xdpi="89.388901"
   inkscape:export-ydpi="89.388901">
  <defs
     id="defs3044">
    <filter
       inkscape:collect="always"
       id="filter4085"
       x="-0.19087174"
       width="1.3817435"
       y="-0.19085899"
       height="1.381718">
      <feGaussianBlur
         inkscape:collect="always"
         stdDeviation="0.38235172"
         id="feGaussianBlur4087" />
    </filter>
    <filter
       inkscape:collect="always"
       id="filter4089"
       x="-0.19087174"
       width="1.3817435"
       y="-0.19085899"
       height="1.381718">
      <feGaussianBlur
         inkscape:collect="always"
         stdDeviation="0.38235172"
         id="feGaussianBlur4091" />
    </filter>
    <filter
       inkscape:collect="always"
       id="filter4093"
       x="-0.19087174"
       width="1.3817435"
       y="-0.19085899"
       height="1.381718">
      <feGaussianBlur
         inkscape:collect="always"
         stdDeviation="0.38235172"
         id="feGaussianBlur4095" />
    </filter>
    <filter
       inkscape:collect="always"
       id="filter3825">
      <feGaussianBlur
         inkscape:collect="always"
         stdDeviation="1.1563342"
         id="feGaussianBlur3827" />
    </filter>
    <filter
       inkscape:collect="always"
       id="filter3877"
       x="-0.17814694"
       width="1.3562939"
       y="-0.17813506"
       height="1.3562701">
      <feGaussianBlur
         inkscape:collect="always"
         stdDeviation="0.41289777"
         id="feGaussianBlur3879" />
    </filter>
    <filter
       inkscape:collect="always"
       id="filter3881"
       x="-0.17814697"
       width="1.3562939"
       y="-0.17813506"
       height="1.3562701">
      <feGaussianBlur
         inkscape:collect="always"
         stdDeviation="0.41289777"
         id="feGaussianBlur3883" />
    </filter>
    <filter
       inkscape:collect="always"
       id="filter3885"
       x="-0.17814697"
       width="1.3562939"
       y="-0.17813503"
       height="1.3562701">
      <feGaussianBlur
         inkscape:collect="always"
         stdDeviation="0.41289777"
         id="feGaussianBlur3887" />
    </filter>
    <filter
       inkscape:collect="always"
       id="filter3915">
      <feGaussianBlur
         inkscape:collect="always"
         stdDeviation="0.2464285"
         id="feGaussianBlur3917" />
    </filter>
  </defs>
  <sodipodi:namedview
     id="base"
     pagecolor="#ffffff"
     bordercolor="#666666"
     borderopacity="1.0"
     inkscape:pageopacity="0.0"
     inkscape:pageshadow="2"
     inkscape:zoom="0.87500001"
     inkscape:cx="-211.11393"
     inkscape:cy="23.742244"
     inkscape:current-layer="layer3"
     showgrid="false"
     inkscape:grid-bbox="true"
     inkscape:document-units="px"
     showguides="true"
     inkscape:guide-bbox="true"
     inkscape:window-width="1392"
     inkscape:window-height="744"
     inkscape:window-x="297"
     inkscape:window-y="178"
     inkscape:window-maximized="0"
     inkscape:snap-global="false">
    <inkscape:grid
       type="xygrid"
       id="grid3885"
       empspacing="5"
       visible="true"
       enabled="true"
       snapvisiblegridlinesonly="true" />
  </sodipodi:namedview>
  <metadata
     id="metadata3047">
    <rdf:RDF>
      <cc:Work
         rdf:about="">
        <dc:format>image/svg+xml</dc:format>
        <dc:type
           rdf:resource="http://purl.org/dc/dcmitype/StillImage" />
        <dc:title></dc:title>
      </cc:Work>
    </rdf:RDF>
  </metadata>
  <g
     inkscape:groupmode="layer"
     id="layer3"
     inkscape:label="shadow"
     style="display:inline"
     transform="translate(0,-32)">
    <rect
       style="fill:#333333;fill-opacity:1;fill-rule:evenodd;stroke:none;filter:url(#filter3915)"
       id="rect3066-0"
       width="14.926526"
       height="14.926526"
       x="0.56402874"
       y="32.534798"
       ry="2.505151" />
  </g>
  <g
     inkscape:groupmode="layer"
     id="layer2"
     inkscape:label="black_back"
     transform="translate(0,-32)"
     sodipodi:insensitive="true">
    <rect
       style="fill:#333333;fill-opacity:1;fill-rule:evenodd;stroke:none"
       id="rect3066"
       width="14.926526"
       height="14.926526"
       x="0.56402874"
       y="32.534798"
       ry="2.505151" />
  </g>
  <g
     id="layer1"
     inkscape:label="Layer 1"
     inkscape:groupmode="layer"
     style="display:inline"
     transform="translate(0,-32)">
    <path
       style="font-size:medium;font-style:normal;font-variant:normal;font-weight:normal;font-stretch:normal;text-indent:0;text-align:start;text-decoration:none;line-height:normal;letter-spacing:normal;word-spacing:normal;text-transform:none;direction:ltr;block-progression:tb;writing-mode:lr-tb;text-anchor:start;baseline-shift:baseline;color:#000000;fill:#fff3de;fill-opacity:1;fill-rule:nonzero;stroke:#fff300;stroke-width:0.02803834;stroke-miterlimit:4;stroke-dasharray:none;marker:none;visibility:visible;display:inline;overflow:visible;enable-background:accumulate;font-family:Sans;-inkscape-font-specification:Sans"
       d="m 9.667474,39.334427 c -0.456713,0 -0.99481,-0.633412 -0.99481,-1.125645 l 0,-3.311588 c 0,-0.492235 0.538099,-1.125707 0.99481,-1.125707 l 3.572944,0 c 0.456713,0 0.994815,0.633472 0.994815,1.125707 l 0,3.311529 c 0,0.492232 -0.538102,1.125704 -0.994815,1.125704 z m 0.0013,-0.4152 3.570399,0 c 0.225785,0 0.580884,-0.376707 0.580884,-0.711775 l 0,-3.308986 c 0,-0.33507 -0.355099,-0.711776 -0.580884,-0.711776 l -3.570398,0 c -0.22578,0 -0.580884,0.376706 -0.580884,0.711776 l 0,3.308986 c 0,0.335068 0.355102,0.711775 0.580884,0.711775 z"
       id="rect4305-1-4-3"
       inkscape:connector-curvature="0"
       sodipodi:nodetypes="ssssssssssssssssss" />
    <path
       style="font-size:medium;font-style:normal;font-variant:normal;font-weight:normal;font-stretch:normal;text-indent:0;text-align:start;text-decoration:none;line-height:normal;letter-spacing:normal;word-spacing:normal;text-transform:none;direction:ltr;block-progression:tb;writing-mode:lr-tb;text-anchor:start;baseline-shift:baseline;color:#000000;fill:#fff3de;fill-opacity:1;fill-rule:nonzero;stroke:#fff300;stroke-width:0.02803834;stroke-miterlimit:4;stroke-dasharray:none;marker:none;visibility:visible;display:inline;overflow:visible;enable-background:accumulate;font-family:Sans;-inkscape-font-specification:Sans"
       d="m 2.762402,39.334427 c -0.456715,0 -0.99481,-0.633412 -0.99481,-1.125645 l 0,-3.311588 c 0,-0.492235 0.538097,-1.125707 0.99481,-1.125707 l 3.572944,0 c 0.456712,0 0.994814,0.633472 0.994814,1.125707 l 0,3.311529 c 0,0.492232 -0.538102,1.125704 -0.994814,1.125704 z"
       id="rect4305-1-4-2-4"
       inkscape:connector-curvature="0"
       sodipodi:nodetypes="sssssssss" />
    <path
       style="font-size:medium;font-style:normal;font-variant:normal;font-weight:normal;font-stretch:normal;text-indent:0;text-align:start;text-decoration:none;line-height:normal;letter-spacing:normal;word-spacing:normal;text-transform:none;direction:ltr;block-progression:tb;writing-mode:lr-tb;text-anchor:start;baseline-shift:baseline;color:#000000;fill:#fff3de;fill-opacity:1;fill-rule:nonzero;stroke:#fff300;stroke-width:0.02803834;stroke-miterlimit:4;stroke-dasharray:none;marker:none;visibility:visible;display:inline;overflow:visible;enable-background:accumulate;font-family:Sans;-inkscape-font-specification:Sans"
       d="m 2.725325,46.276577 c -0.456715,0 -0.99481,-0.633413 -0.99481,-1.125645 l 0,-3.311589 c 0,-0.492234 0.538098,-1.125707 0.99481,-1.125707 l 3.572944,0 c 0.456712,0 0.994814,0.633473 0.994814,1.125707 l 0,3.31153 c 0,0.492232 -0.538102,1.125704 -0.994814,1.125704 z m 0.0013,-0.415202 3.570399,0 c 0.225786,0 0.580885,-0.376706 0.580885,-0.711773 l 0,-3.308987 c 0,-0.33507 -0.355099,-0.711777 -0.580885,-0.711777 l -3.570399,0 c -0.225781,0 -0.580884,0.376707 -0.580884,0.711777 l 0,3.308987 c 0,0.335067 0.355103,0.711773 0.580884,0.711773 z"
       id="rect4305-1-4-0-0"
       inkscape:connector-curvature="0"
       sodipodi:nodetypes="ssssssssssssssssss" />
    <path
       style="font-size:medium;font-style:normal;font-variant:normal;font-weight:normal;font-stretch:normal;text-indent:0;text-align:start;text-decoration:none;line-height:normal;letter-spacing:normal;word-spacing:normal;text-transform:none;direction:ltr;block-progression:tb;writing-mode:lr-tb;text-anchor:start;baseline-shift:baseline;color:#000000;fill:#fff3de;fill-opacity:1;fill-rule:nonzero;stroke:#fff300;stroke-width:0.02803834000000000;stroke-miterlimit:4;stroke-dasharray:none;marker:none;visibility:visible;display:inline;overflow:visible;enable-background:accumulate;font-family:Sans;-inkscape-font-specification:Sans;filter:url(#filter3877)"
       d="m 9.667474,39.334427 c -0.456713,0 -0.99481,-0.633412 -0.99481,-1.125645 l 0,-3.311588 c 0,-0.492235 0.538099,-1.125707 0.99481,-1.125707 l 3.572944,0 c 0.456713,0 0.994815,0.633472 0.994815,1.125707 l 0,3.311529 c 0,0.492232 -0.538102,1.125704 -0.994815,1.125704 z m 0.0013,-0.4152 3.570399,0 c 0.225785,0 0.580884,-0.376707 0.580884,-0.711775 l 0,-3.308986 c 0,-0.33507 -0.355099,-0.711776 -0.580884,-0.711776 l -3.570398,0 c -0.22578,0 -0.580884,0.376706 -0.580884,0.711776 l 0,3.308986 c 0,0.335068 0.355102,0.711775 0.580884,0.711775 z"
       id="rect4305-1-4-3-1"
       inkscape:connector-curvature="0"
       sodipodi:nodetypes="ssssssssssssssssss" />
    <path
       style="font-size:medium;font-style:normal;font-variant:normal;font-weight:normal;font-stretch:normal;text-indent:0;text-align:start;text-decoration:none;line-height:normal;letter-spacing:normal;word-spacing:normal;text-transform:none;direction:ltr;block-progression:tb;writing-mode:lr-tb;text-anchor:start;baseline-shift:baseline;color:#000000;fill:#fff3de;fill-opacity:1;fill-rule:nonzero;stroke:#fff300;stroke-width:0.02803834000000000;stroke-miterlimit:4;stroke-dasharray:none;marker:none;visibility:visible;display:inline;overflow:visible;enable-background:accumulate;font-family:Sans;-inkscape-font-specification:Sans;filter:url(#filter3881)"
       d="m 2.762402,39.334427 c -0.456715,0 -0.99481,-0.633412 -0.99481,-1.125645 l 0,-3.311588 c 0,-0.492235 0.538097,-1.125707 0.99481,-1.125707 l 3.572944,0 c 0.456712,0 0.994814,0.633472 0.994814,1.125707 l 0,3.311529 c 0,0.492232 -0.538102,1.125704 -0.994814,1.125704 z"
       id="rect4305-1-4-2-4-7"
       inkscape:connector-curvature="0"
       sodipodi:nodetypes="sssssssss" />
    <path
       style="font-size:medium;font-style:normal;font-variant:normal;font-weight:normal;font-stretch:normal;text-indent:0;text-align:start;text-decoration:none;line-height:normal;letter-spacing:normal;word-spacing:normal;text-transform:none;direction:ltr;block-progression:tb;writing-mode:lr-tb;text-anchor:start;baseline-shift:baseline;color:#000000;fill:#fff3de;fill-opacity:1;fill-rule:nonzero;stroke:#fff300;stroke-width:0.02803834000000000;stroke-miterlimit:4;stroke-dasharray:none;marker:none;visibility:visible;display:inline;overflow:visible;enable-background:accumulate;font-family:Sans;-inkscape-font-specification:Sans;filter:url(#filter3885)"
       d="m 2.725325,46.276577 c -0.456715,0 -0.99481,-0.633413 -0.99481,-1.125645 l 0,-3.311589 c 0,-0.492234 0.538098,-1.125707 0.99481,-1.125707 l 3.572944,0 c 0.456712,0 0.994814,0.633473 0.994814,1.125707 l 0,3.31153 c 0,0.492232 -0.538102,1.125704 -0.994814,1.125704 z m 0.0013,-0.415202 3.570399,0 c 0.225786,0 0.580885,-0.376706 0.580885,-0.711773 l 0,-3.308987 c 0,-0.33507 -0.355099,-0.711777 -0.580885,-0.711777 l -3.570399,0 c -0.225781,0 -0.580884,0.376707 -0.580884,0.711777 l 0,3.308987 c 0,0.335067 0.355103,0.711773 0.580884,0.711773 z"
       id="rect4305-1-4-0-0-4"
       inkscape:connector-curvature="0"
       sodipodi:nodetypes="ssssssssssssssssss" />
  </g>
</svg>
