<?xml version="1.0" encoding="UTF-8" standalone="no"?>
<!-- Created with Inkscape (http://www.inkscape.org/) -->

<svg
   xmlns:dc="http://purl.org/dc/elements/1.1/"
   xmlns:cc="http://creativecommons.org/ns#"
   xmlns:rdf="http://www.w3.org/1999/02/22-rdf-syntax-ns#"
   xmlns:svg="http://www.w3.org/2000/svg"
   xmlns="http://www.w3.org/2000/svg"
   xmlns:sodipodi="http://sodipodi.sourceforge.net/DTD/sodipodi-0.dtd"
   xmlns:inkscape="http://www.inkscape.org/namespaces/inkscape"
   width="16"
   height="16"
   id="svg3042"
   version="1.1"
   inkscape:version="0.48.2 r9819"
   sodipodi:docname="MainIcon-tiny.svg"
   inkscape:export-filename="C:\Users\imizus\Projects\Vintage\vintage\res-src\MainIcon-16.png"
   inkscape:export-xdpi="89.388901"
   inkscape:export-ydpi="89.388901">
  <defs
     id="defs3044">
    <filter
       inkscape:collect="always"
       id="filter3863"
       x="-0.42663779"
       width="1.8532756"
       y="-0.42660725"
       height="1.8532145">
      <feGaussianBlur
         inkscape:collect="always"
         stdDeviation="0.88674725"
         id="feGaussianBlur3865" />
    </filter>
    <filter
       inkscape:collect="always"
       id="filter3867"
       x="-0.42663789"
       width="1.8532758"
       y="-0.42660725"
       height="1.8532145">
      <feGaussianBlur
         inkscape:collect="always"
         stdDeviation="0.88674725"
         id="feGaussianBlur3869" />
    </filter>
    <filter
       inkscape:collect="always"
       id="filter3871"
       x="-0.42663788"
       width="1.8532758"
       y="-0.42660708"
       height="1.8532142">
      <feGaussianBlur
         inkscape:collect="always"
         stdDeviation="0.88674725"
         id="feGaussianBlur3873" />
    </filter>
    <filter
       inkscape:collect="always"
       id="filter4129">
      <feGaussianBlur
         inkscape:collect="always"
         stdDeviation="8.4359228e-009"
         id="feGaussianBlur4131" />
    </filter>
    <filter
       inkscape:collect="always"
       id="filter4187">
      <feGaussianBlur
         inkscape:collect="always"
         stdDeviation="0.54603603"
         id="feGaussianBlur4189" />
    </filter>
  </defs>
  <sodipodi:namedview
     id="base"
     pagecolor="#ffffff"
     bordercolor="#666666"
     borderopacity="1.0"
     inkscape:pageopacity="0.0"
     inkscape:pageshadow="2"
     inkscape:zoom="1"
     inkscape:cx="-40.125"
     inkscape:cy="-28.69557"
     inkscape:current-layer="layer3"
     showgrid="false"
     inkscape:grid-bbox="true"
     inkscape:document-units="px"
     showguides="true"
     inkscape:guide-bbox="true"
     inkscape:window-width="1157"
     inkscape:window-height="900"
     inkscape:window-x="262"
     inkscape:window-y="62"
     inkscape:window-maximized="0"
     inkscape:snap-global="false">
    <inkscape:grid
       type="xygrid"
       id="grid3885"
       empspacing="5"
       visible="true"
       enabled="true"
       snapvisiblegridlinesonly="true" />
  </sodipodi:namedview>
  <metadata
     id="metadata3047">
    <rdf:RDF>
      <cc:Work
         rdf:about="">
        <dc:format>image/svg+xml</dc:format>
        <dc:type
           rdf:resource="http://purl.org/dc/dcmitype/StillImage" />
        <dc:title></dc:title>
      </cc:Work>
    </rdf:RDF>
  </metadata>
  <g
     inkscape:groupmode="layer"
     id="layer3"
     inkscape:label="shadow"
     style="display:inline"
     transform="translate(0,-32)">
    <rect
       style="opacity:0.93362833999999995;fill:#333333;fill-opacity:1;fill-rule:evenodd;stroke:none;display:inline;filter:url(#filter4187)"
       id="rect3066-1"
       width="13.954254"
       height="13.954254"
       x="1.5552413"
       y="33.595436"
       ry="2.2273591" />
  </g>
  <g
     inkscape:groupmode="layer"
     id="layer2"
     inkscape:label="black_back"
     transform="translate(0,-32)"
     style="display:inline"
     sodipodi:insensitive="true">
    <rect
       style="fill:#333333;fill-opacity:1;fill-rule:evenodd;stroke:none"
       id="rect3066"
       width="13.954254"
       height="13.954254"
       x="0.53877491"
       y="32.534798"
       ry="2.2273591" />
  </g>
  <g
     id="layer1"
     inkscape:label="Layer 1"
     inkscape:groupmode="layer"
     style="display:inline"
     transform="translate(0,-32)"
     sodipodi:insensitive="true">
    <path
       style="font-size:medium;font-style:normal;font-variant:normal;font-weight:normal;font-stretch:normal;text-indent:0;text-align:start;text-decoration:none;line-height:normal;letter-spacing:normal;word-spacing:normal;text-transform:none;direction:ltr;block-progression:tb;writing-mode:lr-tb;text-anchor:start;baseline-shift:baseline;color:#000000;fill:#fff3de;fill-opacity:1;fill-rule:nonzero;stroke:#fff300;stroke-width:0.02703387;stroke-miterlimit:4;stroke-dasharray:none;marker:none;visibility:visible;display:inline;overflow:visible;filter:url(#filter3863);enable-background:accumulate;font-family:Sans;-inkscape-font-specification:Sans"
       d="m 9.0103698,39.007843 c -0.4403514,0 -0.9591711,-0.61072 -0.9591711,-1.085318 l 0,-2.817951 c 0,-0.474601 0.5188217,-1.085379 0.9591711,-1.085379 l 3.0699482,0 c 0.440352,0 0.959176,0.610778 0.959176,1.085379 l 0,2.817893 c 0,0.474598 -0.518824,1.085376 -0.959176,1.085376 z m 0.00125,-0.400326 3.0674942,0 c 0.217696,0 0.560074,-0.363211 0.560074,-0.686275 l 0,-2.815442 c 0,-0.323067 -0.342378,-0.686277 -0.560074,-0.686277 l -3.0674933,0 c -0.2176914,0 -0.5600739,0.36321 -0.5600739,0.686277 l 0,2.815442 c 0,0.323064 0.3423805,0.686275 0.560073,0.686275 z"
       id="rect4305-1-4-3-9"
       inkscape:connector-curvature="0"
       sodipodi:nodetypes="ssssssssssssssssss" />
    <path
       style="font-size:medium;font-style:normal;font-variant:normal;font-weight:normal;font-stretch:normal;text-indent:0;text-align:start;text-decoration:none;line-height:normal;letter-spacing:normal;word-spacing:normal;text-transform:none;direction:ltr;block-progression:tb;writing-mode:lr-tb;text-anchor:start;baseline-shift:baseline;color:#000000;fill:#fff3de;fill-opacity:1;fill-rule:nonzero;stroke:#fff300;stroke-width:0.02703387;stroke-miterlimit:4;stroke-dasharray:none;marker:none;visibility:visible;display:inline;overflow:visible;filter:url(#filter3867);enable-background:accumulate;font-family:Sans;-inkscape-font-specification:Sans"
       d="m 2.9977424,39.007843 c -0.4403532,0 -0.959171,-0.61072 -0.959171,-1.085318 l 0,-2.817951 c 0,-0.474601 0.5188197,-1.085379 0.959171,-1.085379 l 3.0699438,0 c 0.4403504,0 0.9591749,0.610778 0.9591749,1.085379 l 0,2.817893 c 0,0.474598 -0.5188245,1.085376 -0.9591749,1.085376 z"
       id="rect4305-1-4-2-4-5"
       inkscape:connector-curvature="0"
       sodipodi:nodetypes="sssssssss" />
    <path
       style="font-size:medium;font-style:normal;font-variant:normal;font-weight:normal;font-stretch:normal;text-indent:0;text-align:start;text-decoration:none;line-height:normal;letter-spacing:normal;word-spacing:normal;text-transform:none;direction:ltr;block-progression:tb;writing-mode:lr-tb;text-anchor:start;baseline-shift:baseline;color:#000000;fill:#fff3de;fill-opacity:1;fill-rule:nonzero;stroke:#fff300;stroke-width:0.02703387;stroke-miterlimit:4;stroke-dasharray:none;marker:none;visibility:visible;display:inline;overflow:visible;filter:url(#filter3871);enable-background:accumulate;font-family:Sans;-inkscape-font-specification:Sans"
       d="m 2.9619937,45.032325 c -0.4403533,0 -0.9591711,-0.610722 -0.9591711,-1.085319 l 0,-2.817952 c 0,-0.4746 0.5188207,-1.085379 0.9591711,-1.085379 l 3.0699437,0 c 0.4403504,0 0.959175,0.610779 0.959175,1.085379 l 0,2.817894 c 0,0.474598 -0.5188246,1.085377 -0.959175,1.085377 z m 0.00125,-0.400328 3.0674899,0 c 0.2176973,0 0.5600749,-0.36321 0.5600749,-0.686273 l 0,-2.815443 c 0,-0.323067 -0.3423776,-0.686278 -0.5600749,-0.686278 l -3.0674899,0 c -0.2176925,0 -0.560074,0.363211 -0.560074,0.686278 l 0,2.815443 c 0,0.323063 0.3423815,0.686273 0.560074,0.686273 z"
       id="rect4305-1-4-0-0-9"
       inkscape:connector-curvature="0"
       sodipodi:nodetypes="ssssssssssssssssss" />
    <path
       style="font-size:medium;font-style:normal;font-variant:normal;font-weight:normal;font-stretch:normal;text-indent:0;text-align:start;text-decoration:none;line-height:normal;letter-spacing:normal;word-spacing:normal;text-transform:none;direction:ltr;block-progression:tb;writing-mode:lr-tb;text-anchor:start;baseline-shift:baseline;color:#000000;fill:#fff3de;fill-opacity:1;fill-rule:nonzero;stroke:#fff300;stroke-width:0.02703387;stroke-miterlimit:4;stroke-dasharray:none;marker:none;visibility:visible;display:inline;overflow:visible;enable-background:accumulate;font-family:Sans;-inkscape-font-specification:Sans"
       d="m 9.0103698,39.007843 c -0.4403514,0 -0.9591711,-0.61072 -0.9591711,-1.085318 l 0,-2.817951 c 0,-0.474601 0.5188217,-1.085379 0.9591711,-1.085379 l 3.0699482,0 c 0.440352,0 0.959176,0.610778 0.959176,1.085379 l 0,2.817893 c 0,0.474598 -0.518824,1.085376 -0.959176,1.085376 z m 0.00125,-0.400326 3.0674942,0 c 0.217696,0 0.560074,-0.363211 0.560074,-0.686275 l 0,-2.815442 c 0,-0.323067 -0.342378,-0.686277 -0.560074,-0.686277 l -3.0674933,0 c -0.2176914,0 -0.5600739,0.36321 -0.5600739,0.686277 l 0,2.815442 c 0,0.323064 0.3423805,0.686275 0.560073,0.686275 z"
       id="rect4305-1-4-3"
       inkscape:connector-curvature="0"
       sodipodi:nodetypes="ssssssssssssssssss" />
    <path
       style="font-size:medium;font-style:normal;font-variant:normal;font-weight:normal;font-stretch:normal;text-indent:0;text-align:start;text-decoration:none;line-height:normal;letter-spacing:normal;word-spacing:normal;text-transform:none;direction:ltr;block-progression:tb;writing-mode:lr-tb;text-anchor:start;baseline-shift:baseline;color:#000000;fill:#fff3de;fill-opacity:1;fill-rule:nonzero;stroke:#fff300;stroke-width:0.02703387;stroke-miterlimit:4;stroke-dasharray:none;marker:none;visibility:visible;display:inline;overflow:visible;enable-background:accumulate;font-family:Sans;-inkscape-font-specification:Sans"
       d="m 2.9977424,39.007843 c -0.4403532,0 -0.959171,-0.61072 -0.959171,-1.085318 l 0,-2.817951 c 0,-0.474601 0.5188197,-1.085379 0.959171,-1.085379 l 3.0699438,0 c 0.4403504,0 0.9591749,0.610778 0.9591749,1.085379 l 0,2.817893 c 0,0.474598 -0.5188245,1.085376 -0.9591749,1.085376 z"
       id="rect4305-1-4-2-4"
       inkscape:connector-curvature="0"
       sodipodi:nodetypes="sssssssss" />
    <path
       style="font-size:medium;font-style:normal;font-variant:normal;font-weight:normal;font-stretch:normal;text-indent:0;text-align:start;text-decoration:none;line-height:normal;letter-spacing:normal;word-spacing:normal;text-transform:none;direction:ltr;block-progression:tb;writing-mode:lr-tb;text-anchor:start;baseline-shift:baseline;color:#000000;fill:#fff3de;fill-opacity:1;fill-rule:nonzero;stroke:#fff300;stroke-width:0.02703387;stroke-miterlimit:4;stroke-dasharray:none;marker:none;visibility:visible;display:inline;overflow:visible;enable-background:accumulate;font-family:Sans;-inkscape-font-specification:Sans"
       d="m 2.9619937,45.032325 c -0.4403533,0 -0.9591711,-0.610722 -0.9591711,-1.085319 l 0,-2.817952 c 0,-0.4746 0.5188207,-1.085379 0.9591711,-1.085379 l 3.0699437,0 c 0.4403504,0 0.959175,0.610779 0.959175,1.085379 l 0,2.817894 c 0,0.474598 -0.5188246,1.085377 -0.959175,1.085377 z m 0.00125,-0.400328 3.0674899,0 c 0.2176973,0 0.5600749,-0.36321 0.5600749,-0.686273 l 0,-2.815443 c 0,-0.323067 -0.3423776,-0.686278 -0.5600749,-0.686278 l -3.0674899,0 c -0.2176925,0 -0.560074,0.363211 -0.560074,0.686278 l 0,2.815443 c 0,0.323063 0.3423815,0.686273 0.560074,0.686273 z"
       id="rect4305-1-4-0-0"
       inkscape:connector-curvature="0"
       sodipodi:nodetypes="ssssssssssssssssss" />
  </g>
</svg>
