<?xml version="1.0" encoding="UTF-8" standalone="no"?>
<!-- Created with Inkscape (http://www.inkscape.org/) -->

<svg
   xmlns:dc="http://purl.org/dc/elements/1.1/"
   xmlns:cc="http://creativecommons.org/ns#"
   xmlns:rdf="http://www.w3.org/1999/02/22-rdf-syntax-ns#"
   xmlns:svg="http://www.w3.org/2000/svg"
   xmlns="http://www.w3.org/2000/svg"
   xmlns:sodipodi="http://sodipodi.sourceforge.net/DTD/sodipodi-0.dtd"
   xmlns:inkscape="http://www.inkscape.org/namespaces/inkscape"
   width="32"
   height="32"
   id="svg3042"
   version="1.1"
   inkscape:version="0.48.2 r9819"
   sodipodi:docname="MainIcon-small.svg"
   inkscape:export-filename="C:\Users\imizus\Projects\Vintage\vintage\res-src\MainIcon-32.png"
   inkscape:export-xdpi="90"
   inkscape:export-ydpi="90">
  <defs
     id="defs3044">
    <filter
       inkscape:collect="always"
       id="filter3823"
       x="-0.12"
       width="1.24"
       y="-0.12"
       height="1.24"
       color-interpolation-filters="sRGB">
      <feGaussianBlur
         inkscape:collect="always"
         stdDeviation="2.0428572"
         id="feGaussianBlur3825" />
    </filter>
    <filter
       inkscape:collect="always"
       id="filter4085"
       x="-0.19087175"
       width="1.3817436"
       y="-0.19085899"
       height="1.381718"
       color-interpolation-filters="sRGB">
      <feGaussianBlur
         inkscape:collect="always"
         stdDeviation="0.38235172"
         id="feGaussianBlur4087" />
    </filter>
    <filter
       inkscape:collect="always"
       id="filter4089"
       x="-0.19087175"
       width="1.3817436"
       y="-0.19085899"
       height="1.381718"
       color-interpolation-filters="sRGB">
      <feGaussianBlur
         inkscape:collect="always"
         stdDeviation="0.38235172"
         id="feGaussianBlur4091" />
    </filter>
    <filter
       inkscape:collect="always"
       id="filter4093"
       x="-0.19087175"
       width="1.3817436"
       y="-0.19085899"
       height="1.381718"
       color-interpolation-filters="sRGB">
      <feGaussianBlur
         inkscape:collect="always"
         stdDeviation="0.38235172"
         id="feGaussianBlur4095" />
    </filter>
    <filter
       inkscape:collect="always"
       id="filter4765"
       color-interpolation-filters="sRGB">
      <feGaussianBlur
         inkscape:collect="always"
         stdDeviation="0.53351294"
         id="feGaussianBlur4767" />
    </filter>
  </defs>
  <sodipodi:namedview
     id="base"
     pagecolor="#ffffff"
     bordercolor="#666666"
     borderopacity="1.0"
     inkscape:pageopacity="0.0"
     inkscape:pageshadow="2"
     inkscape:zoom="1"
     inkscape:cx="107.43506"
     inkscape:cy="-73.122174"
     inkscape:current-layer="layer1"
     showgrid="false"
     inkscape:grid-bbox="true"
     inkscape:document-units="px"
     showguides="true"
     inkscape:guide-bbox="true"
     inkscape:window-width="979"
     inkscape:window-height="672"
     inkscape:window-x="305"
     inkscape:window-y="196"
     inkscape:window-maximized="0"
     inkscape:snap-global="false">
    <inkscape:grid
       type="xygrid"
       id="grid3885"
       empspacing="5"
       visible="true"
       enabled="true"
       snapvisiblegridlinesonly="true" />
  </sodipodi:namedview>
  <metadata
     id="metadata3047">
    <rdf:RDF>
      <cc:Work
         rdf:about="">
        <dc:format>image/svg+xml</dc:format>
        <dc:type
           rdf:resource="http://purl.org/dc/dcmitype/StillImage" />
        <dc:title></dc:title>
      </cc:Work>
    </rdf:RDF>
  </metadata>
  <g
     inkscape:groupmode="layer"
     id="layer3"
     inkscape:label="shadow"
     style="display:inline"
     transform="translate(0,-16)">
    <rect
       style="fill:#333333;fill-opacity:1;fill-rule:evenodd;stroke:none;filter:url(#filter4765)"
       id="rect3066-7"
       width="13.30644"
       height="13.30644"
       x="1.6645365"
       y="33.64957"
       ry="1.7873715"
       transform="matrix(2,0,0,2,-0.3841054,-48.236442)" />
  </g>
  <g
     inkscape:groupmode="layer"
     id="layer2"
     inkscape:label="black_back"
     transform="translate(0,-16)">
    <rect
       style="fill:#333333;fill-opacity:1;fill-rule:evenodd;stroke:none"
       id="rect3066"
       width="26.612881"
       height="26.612881"
       x="2.3199675"
       y="18.437698"
       ry="3.574743" />
  </g>
  <g
     id="layer1"
     inkscape:label="Layer 1"
     inkscape:groupmode="layer"
     style="display:inline"
     transform="translate(0,-16)">
    <path
       style="font-size:medium;font-style:normal;font-variant:normal;font-weight:normal;font-stretch:normal;text-indent:0;text-align:start;text-decoration:none;line-height:normal;letter-spacing:normal;word-spacing:normal;text-transform:none;direction:ltr;block-progression:tb;writing-mode:lr-tb;text-anchor:start;baseline-shift:baseline;color:#000000;fill:#fff3de;fill-opacity:1;fill-rule:nonzero;stroke:#fff300;stroke-width:0.02423314;stroke-miterlimit:4;stroke-dasharray:none;marker:none;visibility:visible;display:inline;overflow:visible;filter:url(#filter4089);enable-background:accumulate;font-family:Sans;-inkscape-font-specification:Sans"
       d="m 9.46667,39.354959 c -0.394731,0 -0.8598,-0.547449 -0.8598,-0.972879 l 0,-2.862158 c 0,-0.425431 0.465071,-0.972932 0.8598,-0.972932 l 3.088044,0 c 0.39473,0 0.859804,0.547501 0.859804,0.972932 l 0,2.862107 c 0,0.425429 -0.465074,0.97293 -0.859804,0.97293 z m 0.0011,-0.358852 3.085845,0 c 0.195143,0 0.50205,-0.325582 0.50205,-0.615176 l 0,-2.85991 c 0,-0.289596 -0.306907,-0.615178 -0.50205,-0.615178 l -3.085844,0 c -0.195139,0 -0.50205,0.325582 -0.50205,0.615178 l 0,2.85991 c 0,0.289594 0.30691,0.615176 0.50205,0.615176 z"
       id="rect4305-1-4"
       inkscape:connector-curvature="0"
       sodipodi:nodetypes="ssssssssssssssssss"
       transform="matrix(2,0,0,2,-0.3841054,-48.236442)" />
    <path
       style="font-size:medium;font-style:normal;font-variant:normal;font-weight:normal;font-stretch:normal;text-indent:0;text-align:start;text-decoration:none;line-height:normal;letter-spacing:normal;word-spacing:normal;text-transform:none;direction:ltr;block-progression:tb;writing-mode:lr-tb;text-anchor:start;baseline-shift:baseline;color:#000000;fill:#fff3de;fill-opacity:1;fill-rule:nonzero;stroke:#fff300;stroke-width:0.02423314;stroke-miterlimit:4;stroke-dasharray:none;marker:none;visibility:visible;display:inline;overflow:visible;filter:url(#filter4093);enable-background:accumulate;font-family:Sans;-inkscape-font-specification:Sans"
       d="m 3.498715,39.354959 c -0.394732,0 -0.8598,-0.547449 -0.8598,-0.972879 l 0,-2.862158 c 0,-0.425431 0.46507,-0.972932 0.8598,-0.972932 l 3.088044,0 c 0.39473,0 0.859804,0.547501 0.859804,0.972932 l 0,2.862107 c 0,0.425429 -0.465074,0.97293 -0.859804,0.97293 z"
       id="rect4305-1-4-2"
       inkscape:connector-curvature="0"
       sodipodi:nodetypes="sssssssss"
       transform="matrix(2,0,0,2,-0.3841054,-48.236442)" />
    <path
       style="font-size:medium;font-style:normal;font-variant:normal;font-weight:normal;font-stretch:normal;text-indent:0;text-align:start;text-decoration:none;line-height:normal;letter-spacing:normal;word-spacing:normal;text-transform:none;direction:ltr;block-progression:tb;writing-mode:lr-tb;text-anchor:start;baseline-shift:baseline;color:#000000;fill:#fff3de;fill-opacity:1;fill-rule:nonzero;stroke:#fff300;stroke-width:0.02423314;stroke-miterlimit:4;stroke-dasharray:none;marker:none;visibility:visible;display:inline;overflow:visible;filter:url(#filter4085);enable-background:accumulate;font-family:Sans;-inkscape-font-specification:Sans"
       d="m 3.46667,45.354959 c -0.394732,0 -0.8598,-0.547449 -0.8598,-0.972879 l 0,-2.862158 c 0,-0.425431 0.46507,-0.972932 0.8598,-0.972932 l 3.088044,0 c 0.39473,0 0.859804,0.547501 0.859804,0.972932 l 0,2.862107 c 0,0.425429 -0.465074,0.97293 -0.859804,0.97293 z m 0.0011,-0.358852 3.085845,0 c 0.195143,0 0.50205,-0.325582 0.50205,-0.615176 l 0,-2.85991 c 0,-0.289596 -0.306907,-0.615178 -0.50205,-0.615178 l -3.085845,0 c -0.195139,0 -0.50205,0.325582 -0.50205,0.615178 l 0,2.85991 c 0,0.289594 0.306911,0.615176 0.50205,0.615176 z"
       id="rect4305-1-4-0"
       inkscape:connector-curvature="0"
       sodipodi:nodetypes="ssssssssssssssssss"
       transform="matrix(2,0,0,2,-0.3841054,-48.236442)" />
    <path
       style="font-size:medium;font-style:normal;font-variant:normal;font-weight:normal;font-stretch:normal;text-indent:0;text-align:start;text-decoration:none;line-height:normal;letter-spacing:normal;word-spacing:normal;text-transform:none;direction:ltr;block-progression:tb;writing-mode:lr-tb;text-anchor:start;baseline-shift:baseline;color:#000000;fill:#fff3de;fill-opacity:1;fill-rule:nonzero;stroke:#fff300;stroke-width:0.04846628;stroke-miterlimit:4;stroke-dasharray:none;marker:none;visibility:visible;display:inline;overflow:visible;enable-background:accumulate;font-family:Sans;-inkscape-font-specification:Sans"
       d="m 18.549235,30.473476 c -0.789462,0 -1.7196,-1.094898 -1.7196,-1.945758 l 0,-5.724316 c 0,-0.850862 0.930142,-1.945864 1.7196,-1.945864 l 6.176088,0 c 0.78946,0 1.719608,1.095002 1.719608,1.945864 l 0,5.724214 c 0,0.850858 -0.930148,1.94586 -1.719608,1.94586 z m 0.0022,-0.717704 6.17169,0 c 0.390286,0 1.0041,-0.651164 1.0041,-1.230352 l 0,-5.71982 c 0,-0.579192 -0.613814,-1.230356 -1.0041,-1.230356 l -6.171688,0 c -0.390278,0 -1.0041,0.651164 -1.0041,1.230356 l 0,5.71982 c 0,0.579188 0.61382,1.230352 1.0041,1.230352 z"
       id="rect4305-1-4-3"
       inkscape:connector-curvature="0"
       sodipodi:nodetypes="ssssssssssssssssss" />
    <path
       style="font-size:medium;font-style:normal;font-variant:normal;font-weight:normal;font-stretch:normal;text-indent:0;text-align:start;text-decoration:none;line-height:normal;letter-spacing:normal;word-spacing:normal;text-transform:none;direction:ltr;block-progression:tb;writing-mode:lr-tb;text-anchor:start;baseline-shift:baseline;color:#000000;fill:#fff3de;fill-opacity:1;fill-rule:nonzero;stroke:#fff300;stroke-width:0.04846628;stroke-miterlimit:4;stroke-dasharray:none;marker:none;visibility:visible;display:inline;overflow:visible;enable-background:accumulate;font-family:Sans;-inkscape-font-specification:Sans"
       d="m 6.6133246,30.473476 c -0.789464,0 -1.7196,-1.094898 -1.7196,-1.945758 l 0,-5.724316 c 0,-0.850862 0.93014,-1.945864 1.7196,-1.945864 l 6.1760884,0 c 0.78946,0 1.719608,1.095002 1.719608,1.945864 l 0,5.724214 c 0,0.850858 -0.930148,1.94586 -1.719608,1.94586 z"
       id="rect4305-1-4-2-4"
       inkscape:connector-curvature="0"
       sodipodi:nodetypes="sssssssss" />
    <path
       style="font-size:medium;font-style:normal;font-variant:normal;font-weight:normal;font-stretch:normal;text-indent:0;text-align:start;text-decoration:none;line-height:normal;letter-spacing:normal;word-spacing:normal;text-transform:none;direction:ltr;block-progression:tb;writing-mode:lr-tb;text-anchor:start;baseline-shift:baseline;color:#000000;fill:#fff3de;fill-opacity:1;fill-rule:nonzero;stroke:#fff300;stroke-width:0.04846628;stroke-miterlimit:4;stroke-dasharray:none;marker:none;visibility:visible;display:inline;overflow:visible;enable-background:accumulate;font-family:Sans;-inkscape-font-specification:Sans"
       d="m 6.5492346,42.473476 c -0.789464,0 -1.7196,-1.094898 -1.7196,-1.945758 l 0,-5.724316 c 0,-0.850862 0.93014,-1.945864 1.7196,-1.945864 l 6.1760884,0 c 0.78946,0 1.719608,1.095002 1.719608,1.945864 l 0,5.724214 c 0,0.850858 -0.930148,1.94586 -1.719608,1.94586 z m 0.0022,-0.717704 6.1716904,0 c 0.390286,0 1.0041,-0.651164 1.0041,-1.230352 l 0,-5.71982 c 0,-0.579192 -0.613814,-1.230356 -1.0041,-1.230356 l -6.1716904,0 c -0.390278,0 -1.0041,0.651164 -1.0041,1.230356 l 0,5.71982 c 0,0.579188 0.613822,1.230352 1.0041,1.230352 z"
       id="rect4305-1-4-0-0"
       inkscape:connector-curvature="0"
       sodipodi:nodetypes="ssssssssssssssssss" />
  </g>
</svg>
