<?xml version="1.0" encoding="UTF-8" standalone="no"?>
<!-- Created with Inkscape (http://www.inkscape.org/) -->

<svg
   xmlns:dc="http://purl.org/dc/elements/1.1/"
   xmlns:cc="http://creativecommons.org/ns#"
   xmlns:rdf="http://www.w3.org/1999/02/22-rdf-syntax-ns#"
   xmlns:svg="http://www.w3.org/2000/svg"
   xmlns="http://www.w3.org/2000/svg"
   xmlns:sodipodi="http://sodipodi.sourceforge.net/DTD/sodipodi-0.dtd"
   xmlns:inkscape="http://www.inkscape.org/namespaces/inkscape"
   width="744.09448819"
   height="1052.3622047"
   id="svg3234"
   version="1.1"
   inkscape:version="0.48.2 r9819"
   sodipodi:docname="Vintage-title.svg"
   inkscape:export-filename="C:\Users\imizus\Projects\Vintage-site\site\images\Vintage-title.png"
   inkscape:export-xdpi="30.549505"
   inkscape:export-ydpi="30.549505">
  <defs
     id="defs3236">
    <filter
       inkscape:collect="always"
       id="filter4277"
       x="-0.25127911"
       width="1.5025582"
       y="-0.25953811"
       height="1.5190762">
      <feGaussianBlur
         inkscape:collect="always"
         stdDeviation="26.50536"
         id="feGaussianBlur4279" />
    </filter>
    <filter
       inkscape:collect="always"
       id="filter4281"
       x="-0.24198903"
       width="1.4839781"
       y="-0.18988915"
       height="1.3797783">
      <feGaussianBlur
         inkscape:collect="always"
         stdDeviation="26.50536"
         id="feGaussianBlur4283" />
    </filter>
    <filter
       inkscape:collect="always"
       id="filter4285"
       x="-0.26211842"
       width="1.5242368"
       y="-0.25841068"
       height="1.5168214">
      <feGaussianBlur
         inkscape:collect="always"
         stdDeviation="26.50536"
         id="feGaussianBlur4287" />
    </filter>
    <filter
       inkscape:collect="always"
       id="filter4289"
       x="-0.25219972"
       width="1.5043994"
       y="-0.1805924"
       height="1.3611848">
      <feGaussianBlur
         inkscape:collect="always"
         stdDeviation="26.50536"
         id="feGaussianBlur4291" />
    </filter>
    <filter
       inkscape:collect="always"
       id="filter4293"
       x="-0.26184417"
       width="1.5236883"
       y="-0.25888396"
       height="1.5177679">
      <feGaussianBlur
         inkscape:collect="always"
         stdDeviation="26.50536"
         id="feGaussianBlur4295" />
    </filter>
    <filter
       inkscape:collect="always"
       id="filter4297"
       x="-0.28131726"
       width="1.5626345"
       y="-0.17883292"
       height="1.3576658">
      <feGaussianBlur
         inkscape:collect="always"
         stdDeviation="26.50536"
         id="feGaussianBlur4299" />
    </filter>
    <filter
       inkscape:collect="always"
       id="filter4301"
       x="-0.24332785"
       width="1.4866557"
       y="-0.16860661"
       height="1.3372132">
      <feGaussianBlur
         inkscape:collect="always"
         stdDeviation="26.50536"
         id="feGaussianBlur4303" />
    </filter>
    <filter
       inkscape:collect="always"
       id="filter4428"
       x="-0.19200305"
       width="1.3840061"
       y="-0.19199695"
       height="1.3839939">
      <feGaussianBlur
         inkscape:collect="always"
         stdDeviation="7.3095838"
         id="feGaussianBlur4430" />
    </filter>
  </defs>
  <sodipodi:namedview
     id="base"
     pagecolor="#ffffff"
     bordercolor="#666666"
     borderopacity="1.0"
     inkscape:pageopacity="0.0"
     inkscape:pageshadow="2"
     inkscape:zoom="0.49497475"
     inkscape:cx="134.08027"
     inkscape:cy="746.29966"
     inkscape:document-units="px"
     inkscape:current-layer="layer1"
     showgrid="false"
     inkscape:window-width="1573"
     inkscape:window-height="748"
     inkscape:window-x="125"
     inkscape:window-y="125"
     inkscape:window-maximized="0" />
  <metadata
     id="metadata3239">
    <rdf:RDF>
      <cc:Work
         rdf:about="">
        <dc:format>image/svg+xml</dc:format>
        <dc:type
           rdf:resource="http://purl.org/dc/dcmitype/StillImage" />
        <dc:title></dc:title>
      </cc:Work>
    </rdf:RDF>
  </metadata>
  <g
     inkscape:groupmode="layer"
     id="layer11"
     inkscape:label="bg"
     style="display:none"
     sodipodi:insensitive="true">
    <rect
       style="fill:#000000;fill-opacity:1;stroke:#000000;stroke-width:0.2456055;stroke-miterlimit:4;stroke-opacity:1;stroke-dasharray:none"
       id="rect3386"
       width="793.43225"
       height="314.44421"
       x="-79.919807"
       y="3.1916044"
       ry="0.67735267" />
  </g>
  <g
     inkscape:groupmode="layer"
     id="layer10"
     inkscape:label="helpers"
     style="display:none"
     sodipodi:insensitive="true">
    <path
       style="fill:#000000;stroke:#000000;stroke-width:0.17493877px;stroke-linecap:butt;stroke-linejoin:miter;stroke-opacity:1"
       d="m 127.42562,202.49353 421.85236,0"
       id="path3357"
       inkscape:connector-curvature="0" />
    <path
       style="fill:#000000;stroke:#000000;stroke-width:0.18457101px;stroke-linecap:butt;stroke-linejoin:miter;stroke-opacity:1"
       d="m 538.16947,159.50776 -337.16203,0"
       id="path3361"
       inkscape:connector-curvature="0" />
  </g>
  <g
     inkscape:groupmode="layer"
     id="layer12"
     inkscape:label="blurred"
     style="display:inline">
    <path
       inkscape:connector-curvature="0"
       style="fill:#fff3de;fill-opacity:1;stroke:#fff300;stroke-width:1px;stroke-linecap:butt;stroke-linejoin:miter;stroke-opacity:1;filter:url(#filter4277)"
       d="m 971.2765,-384.08904 c -6.8816,25.68245 -23.0023,67.33637 -62.6984,67.33637 l -36.0714,0 c -45.6706,0 -62.6518,-40.7578 -62.6518,-98.2991 l 206.7232,-0.70484 0,-27.29968 c 0,-45.27394 -31.9227,-101.34375 -89.8125,-101.34375 l -71.9062,-0.21875 c -58.7091,0 -91.4375,52.97402 -91.4375,103.5625 l 0,64.72768 c 0,41.0523 39.0604,76.72768 82.1562,76.72768 l 89.6875,0 c 53.7966,2.32409 80.4107,-44.95323 81.3125,-84.54911 z m -161.4216,-48.31095 c 0,-47.94242 22.7814,-96.78125 70.2857,-96.78125 l 25.5625,0 c 52.0329,0 65.4107,49.40667 65.4107,96.83929 -53.991,0.0158 -107.2678,-0.055 -161.2589,-0.058 z"
       id="path3184-0-9"
       sodipodi:nodetypes="cssccsccssscccsssccs"
       transform="matrix(0.17493877,0,0,0.17493877,383.34235,254.81183)" />
    <path
       style="fill:#fff3de;fill-opacity:1;stroke:#fff300;stroke-width:1px;stroke-linecap:butt;stroke-linejoin:miter;stroke-opacity:1;display:inline;filter:url(#filter4281)"
       d="m 545.0045,-544.70926 c -58.7092,0 -91.4375,38.97402 -91.4375,89.5625 l 0,46.15625 c 0,41.0523 39.0604,82.15625 82.1562,82.15625 l 71.6875,0 c 30.0852,0 63.3125,19.31089 63.3125,45.40625 0,27.21054 -19.4858,55.65625 -49.6562,55.65625 l -65.3438,0 c -36.8051,0 -55.7187,-36.28191 -55.7187,-48.9375 l -47.1563,0 0,17.875 c 0,17.35374 23.5776,47.125 81.4375,47.125 l 99.2813,0 c 33.8241,0 82.1562,-19.15046 82.1562,-65 l 0,-9.28125 c 0,-31.77158 -18.5799,-53.97308 -46.4375,-61.4375 13.8985,-3.7241 37.4375,-26.62979 37.4375,-64.8125 l 0,-50.90625 c 0,-45.27394 -31.9227,-83.34375 -89.8125,-83.34375 z m 17.2812,15.4375 41.5625,0 c 29.8901,0 63.125,29.12095 63.125,65.125 l 0,57.5625 c 0,37.87085 -32.5521,60.8125 -64.25,60.8125 l -41.5,0 c -31.3849,0 -61.9375,-20.82924 -61.9375,-62.65625 l 0,-57.5625 c 0,-34.14334 31.21,-63.28125 63,-63.28125 z"
       id="path3184-4"
       inkscape:connector-curvature="0"
       sodipodi:nodetypes="csssssssccssssscssccsssssssss"
       transform="matrix(0.17493877,0,0,0.17493877,379.34235,254.81183)" />
    <path
       style="fill:#fff3de;fill-opacity:1;stroke:#fff300;stroke-width:1px;stroke-linecap:butt;stroke-linejoin:miter;stroke-opacity:1;display:inline;filter:url(#filter4285)"
       d="m 227.058,-545.00835 c -44.146,0 -80.6875,39.03384 -80.6875,83.54464 l 0,81.0625 c 0,45.77291 36.3576,81.5625 81.5625,81.5625 l 161.125,0 0,-246.16964 z m 27.0625,16 89.4375,0 0,214.16964 -89.2812,0 c -39.144,0 -62.625,-32.4165 -62.625,-65.5625 l 0,-81.0625 c 0,-33.9042 23.8785,-67.54464 62.4687,-67.54464 z"
       id="path3136-8"
       inkscape:connector-curvature="0"
       sodipodi:nodetypes="ssssccssccssss"
       transform="matrix(0.17493877,0,0,0.17493877,375.34235,254.81183)" />
    <path
       style="fill:#fff3de;fill-opacity:1;stroke:#fff300;stroke-width:0.9443351px;stroke-linecap:butt;stroke-linejoin:miter;stroke-opacity:1;display:inline;filter:url(#filter4289)"
       d="m -141.20536,-545.38804 -0.10714,16.54018 71.57589,0 0,179.12299 c 0,35.92398 27.90194,50.38839 54.56251,50.38839 l 73.0625,0 c 22.5292,0 53.0312,-14.75122 53.0312,-49.38839 l 0,-14.89435 -45.8699,0 0,29.27189 c 0,7.81276 -5.0457,17.59629 -13.8176,17.59629 l -61.9214,0 c -7.2432,0 -13.75004,-7.677 -13.75004,-18.03379 l 0,-194.00442 90.08664,-0.35714 0.1429,-15.8845 -90.17088,0 -0.21344,-106.49432 -44.84783,-0.0568 -0.35715,106.19397 z"
       id="path3035-1-8"
       inkscape:connector-curvature="0"
       sodipodi:nodetypes="cccssssccsssscccccccc"
       transform="matrix(0.17493877,0,0,0.17493877,371.34235,254.81183)" />
    <path
       style="fill:#fff3de;fill-opacity:1;stroke:#fff300;stroke-width:1px;stroke-linecap:butt;stroke-linejoin:miter;stroke-opacity:1;display:inline;filter:url(#filter4293)"
       d="m -429.47084,-299.06695 0,-245.71961 171.22085,0 c 39.63437,0 71.72084,41.64205 71.72084,73.10979 l 0,172.60982 -44.95179,0 0,-159.80017 c 0,-36.52401 -23.41218,-69.30141 -67.38708,-69.30141 l -84.64088,0 0,229.10157 z"
       id="path3069-2"
       inkscape:connector-curvature="0"
       sodipodi:nodetypes="ccccccccccc"
       transform="matrix(0.17493877,0,0,0.17493877,369.34235,254.81183)" />
    <path
       style="fill:#fff3de;fill-opacity:1;stroke:#fff300;stroke-width:0.9443351px;stroke-linecap:butt;stroke-linejoin:miter;stroke-opacity:1;display:inline;filter:url(#filter4297)"
       d="m -640.41518,-654.8722 c -8.25058,0 -13.53125,4.61192 -13.53125,13.21875 l 0,23.09375 c 0,8.31536 4.96491,13.0625 13.28125,13.0625 l 44.15705,0 c 9.27559,0 13.84375,-4.11337 13.84375,-13.59375 l 0,-22.78125 c 0,-8.21961 -4.22418,-13 -13.25,-13 z m -69.21875,110.18497 0.25,17.96875 71.21875,0 0,177.52618 c 0,35.92398 27.90194,50.03125 54.56251,50.03125 l 47.0625,0 c 22.52924,0 53.03124,-14.39408 53.03124,-49.03125 l 0,-20.42989 -46.37499,0 0,34.55489 c 0,7.81276 -8.54067,17.34375 -17.3125,17.34375 l -26.40625,0 c -7.24315,0 -17.75,-7.42446 -17.75,-17.78125 l 0,-210.18243 z"
       id="path3035-4"
       inkscape:connector-curvature="0"
       sodipodi:nodetypes="ssssssssscccssssccsssscc"
       transform="matrix(0.17493877,0,0,0.17493877,367.34235,254.81183)" />
    <path
       style="fill:#fff3de;fill-opacity:1;stroke:#fff300;stroke-width:1px;stroke-linecap:butt;stroke-linejoin:miter;stroke-opacity:1;display:inline;filter:url(#filter4301)"
       d="m -1022.1429,-668.38222 47.7143,0 c 0,132.39465 39.965,352.28573 83,352.28573 42.2862,-1.01015 83.7143,-220.4575 83.7143,-352.28573 l 47.00002,0 c 0,179.24017 -42.04712,377.28571 -131.42862,377.28571 -80.5417,0 -129.9336,-196.54669 -130,-377.28571 z"
       id="path3017-5"
       inkscape:connector-curvature="0"
       sodipodi:nodetypes="ccccccc"
       transform="matrix(0.17493877,0,0,0.17493877,365.34235,254.81183)" />
    <path
       style="font-size:medium;font-style:normal;font-variant:normal;font-weight:normal;font-stretch:normal;text-indent:0;text-align:start;text-decoration:none;line-height:normal;letter-spacing:normal;word-spacing:normal;text-transform:none;direction:ltr;block-progression:tb;writing-mode:lr-tb;text-anchor:start;baseline-shift:baseline;color:#000000;fill:#fff3de;fill-opacity:1;fill-rule:nonzero;stroke:#fff300;stroke-width:0.21867347;stroke-miterlimit:4;stroke-dasharray:none;marker:none;visibility:visible;display:inline;overflow:visible;filter:url(#filter4428);enable-background:accumulate;font-family:Sans;-inkscape-font-specification:Sans"
       d="m 76.321186,124.73649 c -3.56195,0 -6.18848,3.37038 -6.18848,7.20935 l 0,28.96715 c 0,3.83897 2.62655,7.20934 6.18848,7.20934 l 31.005944,0 c 3.56194,0 6.18853,-3.37037 6.18853,-7.20934 l 0,-28.96715 c 0,-3.83897 -2.62659,-7.20935 -6.18853,-7.20935 l -31.005944,0 z m 47.985394,0 c -3.56193,0 -6.18849,3.37038 -6.18849,7.20935 l 0,28.96715 c 0,3.83897 2.62656,7.20934 6.18849,7.20934 l 31.00597,0 c 3.56195,0 6.1885,-3.37037 6.1885,-7.20934 l 0,-28.96715 c 0,-3.83897 -2.62655,-7.20935 -6.1885,-7.20935 l -31.00597,0 z m 0,2.76839 31.00597,0 c 1.7609,0 3.42011,1.82773 3.42011,4.44096 l 0,28.96715 c 0,2.61323 -1.65921,4.44096 -3.42011,4.44096 l -31.00597,0 c -1.7609,0 -3.42009,-1.82773 -3.42009,-4.44096 l 0,-28.96715 c 0,-2.61323 1.65919,-4.44096 3.42009,-4.44096 z M 76.321186,172.7219 c -3.56195,0 -6.18848,3.37038 -6.18848,7.20934 l 0,28.96715 c 0,3.83897 2.62655,7.20935 6.18848,7.20935 l 31.005944,0 c 3.56194,0 6.18853,-3.37038 6.18853,-7.20935 l 0,-28.96715 c 0,-3.83896 -2.62659,-7.20934 -6.18853,-7.20934 l -31.005944,0 z m 0,2.76839 31.005944,0 c 1.76093,0 3.42014,1.82772 3.42014,4.44095 l 0,28.96715 c 0,2.61324 -1.65921,4.44096 -3.42014,4.44096 l -31.005944,0 c -1.76088,0 -3.42012,-1.82772 -3.42012,-4.44096 l 0,-28.96715 c 0,-2.61323 1.65924,-4.44095 3.42012,-4.44095 z"
       id="rect4305-1-1"
       inkscape:connector-curvature="0" />
  </g>
  <g
     inkscape:label="main"
     inkscape:groupmode="layer"
     id="layer1"
     style="display:inline">
    <path
       inkscape:connector-curvature="0"
       style="fill:#fff3de;fill-opacity:1;stroke:#fff300;stroke-width:0.17493877px;stroke-linecap:butt;stroke-linejoin:miter;stroke-opacity:1"
       d="m 553.25627,187.61976 c -1.20386,4.49286 -4.024,11.77975 -10.96838,11.77975 l -6.31029,0 c -7.98956,0 -10.96023,-7.13012 -10.96023,-17.19633 l 36.1639,-0.1233 0,-4.77577 c 0,-7.92017 -5.58451,-17.72896 -15.71168,-17.72896 l -12.57919,-0.0383 c -10.2705,0 -15.99597,9.26721 -15.99597,18.11709 l 0,9.95473 c 0,7.18164 8.83319,14.7913 16.37232,14.7913 l 11.68982,0 c 9.4111,0.40657 16.06694,-7.86406 16.2247,-14.79092 z m -28.2389,-8.45145 c 0,-8.38699 3.98535,-16.9308 12.2957,-16.9308 l 4.47187,0 c 9.10257,0 11.44287,8.64314 11.44287,16.94095 -9.44514,0.003 -18.76531,-0.01 -28.21044,-0.0102 z"
       id="path3184-0"
       sodipodi:nodetypes="cssccsccssscccsssccs" />
    <path
       style="fill:#fff3de;fill-opacity:1;stroke:#fff300;stroke-width:0.17493877px;stroke-linecap:butt;stroke-linejoin:miter;stroke-opacity:1;display:inline"
       d="m 474.68476,159.52106 c -10.2705,0 -15.99596,6.81807 -15.99596,15.66795 l 0,8.07452 c 0,7.18164 6.83318,14.37231 14.37231,14.37231 l 12.54092,0 c 5.26307,0 11.07581,3.37823 11.07581,7.94332 0,4.76018 -3.40883,9.73643 -8.6868,9.73643 l -11.43115,0 c -6.43864,0 -9.74737,-6.34711 -9.74737,-8.56106 l -8.24946,0 0,3.12703 c 0,3.03584 4.12464,8.24399 14.24658,8.24399 l 17.36813,0 c 5.91716,0 14.37232,-3.35016 14.37232,-11.37102 l 0,-1.62365 c 0,-5.55808 -3.25035,-9.44199 -8.12372,-10.7478 2.43139,-0.65149 6.54927,-4.65859 6.54927,-11.33822 l 0,-8.90548 c 0,-7.92017 -5.58452,-14.58005 -15.71169,-14.58005 z m 3.02316,2.70062 7.27089,0 c 5.22893,0 11.04301,5.09438 11.04301,11.39288 l 0,10.06992 c 0,6.62508 -5.69463,10.63846 -11.23982,10.63846 l -7.25995,0 c -5.49043,0 -10.83527,-3.64384 -10.83527,-10.96101 l 0,-10.06991 c 0,-5.97299 5.45983,-11.07034 11.02114,-11.07034 z"
       id="path3184"
       inkscape:connector-curvature="0"
       sodipodi:nodetypes="csssssssccssssscssccsssssssss" />
    <path
       style="fill:#fff3de;fill-opacity:1;stroke:#fff300;stroke-width:0.17493877px;stroke-linecap:butt;stroke-linejoin:miter;stroke-opacity:1;display:inline"
       d="m 415.06361,159.46874 c -7.72286,0 -14.11538,6.82853 -14.11538,14.61519 l 0,14.18098 c 0,8.00746 6.36036,14.26844 14.26845,14.26844 l 28.18701,0 0,-43.06461 z m 4.73428,2.79902 15.64608,0 0,37.46657 -15.61875,0 c -6.8478,0 -10.95554,-5.6709 -10.95554,-11.46942 l 0,-14.18098 c 0,-5.93116 4.17728,-11.81617 10.92821,-11.81617 z"
       id="path3136"
       inkscape:connector-curvature="0"
       sodipodi:nodetypes="ssssccssccssss" />
    <path
       style="fill:#fff3de;fill-opacity:1;stroke:#fff300;stroke-width:0.16520083px;stroke-linecap:butt;stroke-linejoin:miter;stroke-opacity:1;display:inline"
       d="m 346.64006,159.40231 -0.0188,2.89352 12.5214,0 0,31.33556 c 0,6.2845 4.88113,8.81488 9.5451,8.81488 l 12.78146,0 c 3.94124,0 9.27723,-2.58056 9.27723,-8.63994 l 0,-2.6056 -8.02443,0 0,5.12079 c 0,1.36675 -0.8827,3.07827 -2.41723,3.07827 l -10.83247,0 c -1.26711,0 -2.40541,-1.343 -2.40541,-3.15481 l 0,-33.93889 15.75965,-0.0625 0.025,-2.77882 -15.77438,0 -0.0373,-18.62998 -7.84562,-0.01 -0.0625,18.57744 z"
       id="path3035-1"
       inkscape:connector-curvature="0"
       sodipodi:nodetypes="cccssssccsssscccccccc" />
    <path
       style="fill:#fff3de;fill-opacity:1;stroke:#fff300;stroke-width:0.17493877px;stroke-linecap:butt;stroke-linejoin:miter;stroke-opacity:1;display:inline"
       d="m 294.21125,202.49342 0,-42.98588 29.95316,0 c 6.93359,0 12.54676,7.28481 12.54676,12.78973 l 0,30.19615 -7.86381,0 0,-27.95524 c 0,-6.38947 -4.0957,-12.12351 -11.78862,-12.12351 l -14.80697,0 0,40.07875 z"
       id="path3069"
       inkscape:connector-curvature="0"
       sodipodi:nodetypes="ccccccccccc" />
    <path
       style="fill:#fff3de;fill-opacity:1;stroke:#fff300;stroke-width:0.16520083px;stroke-linecap:butt;stroke-linejoin:miter;stroke-opacity:1;display:inline"
       d="m 255.3089,140.24929 c -1.44334,0 -2.36714,0.8068 -2.36714,2.31247 l 0,4.03999 c 0,1.45468 0.86856,2.28514 2.32341,2.28514 l 7.72478,0 c 1.62266,0 2.42181,-0.71959 2.42181,-2.37807 l 0,-3.98533 c 0,-1.43792 -0.73898,-2.2742 -2.31794,-2.2742 z m -12.10904,19.27562 0.0437,3.14343 12.45893,0 0,31.05622 c 0,6.28449 4.88113,8.7524 9.54509,8.7524 l 8.23306,0 c 3.94124,0 9.27722,-2.51808 9.27722,-8.57746 l 0,-3.57398 -8.11278,0 0,6.04499 c 0,1.36675 -1.4941,3.03409 -3.02863,3.03409 l -4.61948,0 c -1.26711,0 -3.10516,-1.29883 -3.10516,-3.11063 l 0,-36.76906 z"
       id="path3035"
       inkscape:connector-curvature="0"
       sodipodi:nodetypes="ssssssssscccssssccsssscc" />
    <path
       style="fill:#fff3de;fill-opacity:1;stroke:#fff300;stroke-width:0.17493877px;stroke-linecap:butt;stroke-linejoin:miter;stroke-opacity:1;display:inline"
       d="m 186.52992,137.88586 8.34709,0 c 0,23.16096 6.99142,61.62844 14.51991,61.62844 7.3975,-0.17672 14.64488,-38.56657 14.64488,-61.62844 l 8.22213,0 c 0,31.35606 -7.35568,66.0019 -22.99197,66.0019 -14.08986,0 -22.73042,-34.38363 -22.74204,-66.0019 z"
       id="path3017"
       inkscape:connector-curvature="0"
       sodipodi:nodetypes="ccccccc" />
    <path
       style="font-size:medium;font-style:normal;font-variant:normal;font-weight:normal;font-stretch:normal;text-indent:0;text-align:start;text-decoration:none;line-height:normal;letter-spacing:normal;word-spacing:normal;text-transform:none;direction:ltr;block-progression:tb;writing-mode:lr-tb;text-anchor:start;baseline-shift:baseline;color:#000000;fill:#fff3de;fill-opacity:1;fill-rule:nonzero;stroke:#fff300;stroke-width:0.21867347;stroke-miterlimit:4;stroke-dasharray:none;marker:none;visibility:visible;display:inline;overflow:visible;enable-background:accumulate;font-family:Sans;-inkscape-font-specification:Sans"
       d="m 76.321186,124.73649 c -3.56195,0 -6.18848,3.37038 -6.18848,7.20935 l 0,28.96715 c 0,3.83897 2.62655,7.20934 6.18848,7.20934 l 31.005944,0 c 3.56194,0 6.18853,-3.37037 6.18853,-7.20934 l 0,-28.96715 c 0,-3.83897 -2.62659,-7.20935 -6.18853,-7.20935 l -31.005944,0 z m 47.985394,0 c -3.56193,0 -6.18849,3.37038 -6.18849,7.20935 l 0,28.96715 c 0,3.83897 2.62656,7.20934 6.18849,7.20934 l 31.00597,0 c 3.56195,0 6.1885,-3.37037 6.1885,-7.20934 l 0,-28.96715 c 0,-3.83897 -2.62655,-7.20935 -6.1885,-7.20935 l -31.00597,0 z m 0,2.76839 31.00597,0 c 1.7609,0 3.42011,1.82773 3.42011,4.44096 l 0,28.96715 c 0,2.61323 -1.65921,4.44096 -3.42011,4.44096 l -31.00597,0 c -1.7609,0 -3.42009,-1.82773 -3.42009,-4.44096 l 0,-28.96715 c 0,-2.61323 1.65919,-4.44096 3.42009,-4.44096 z M 76.321186,172.7219 c -3.56195,0 -6.18848,3.37038 -6.18848,7.20934 l 0,28.96715 c 0,3.83897 2.62655,7.20935 6.18848,7.20935 l 31.005944,0 c 3.56194,0 6.18853,-3.37038 6.18853,-7.20935 l 0,-28.96715 c 0,-3.83896 -2.62659,-7.20934 -6.18853,-7.20934 l -31.005944,0 z m 0,2.76839 31.005944,0 c 1.76093,0 3.42014,1.82772 3.42014,4.44095 l 0,28.96715 c 0,2.61324 -1.65921,4.44096 -3.42014,4.44096 l -31.005944,0 c -1.76088,0 -3.42012,-1.82772 -3.42012,-4.44096 l 0,-28.96715 c 0,-2.61323 1.65924,-4.44095 3.42012,-4.44095 z"
       id="rect4305-1"
       inkscape:connector-curvature="0" />
  </g>
</svg>
